<svg width="100%" height="100%" viewBox="0 0 394 306" fill="none" xmlns="http://www.w3.org/2000/svg">
<g clip-path="url(#clip0)">
<path d="M377.034 164.482C377.176 162.589 377.815 160.768 378.887 159.2C379.958 157.633 381.424 156.376 383.137 155.556C384.85 154.736 386.749 154.382 388.642 154.529C390.535 154.677 392.356 155.32 393.921 156.396C393.791 158.294 393.159 160.124 392.089 161.698C391.02 163.273 389.552 164.536 387.835 165.358C386.118 166.18 384.214 166.532 382.316 166.378C380.418 166.224 378.596 165.57 377.034 164.482V164.482ZM236.981 280.68C237.352 278.656 238.248 276.765 239.577 275.195C240.907 273.624 242.626 272.43 244.561 271.73C246.121 273.066 247.305 274.788 247.994 276.723C248.683 278.658 248.853 280.739 248.489 282.76C247.986 285.392 246.601 287.774 244.561 289.512C251.176 288.792 257.735 287.638 264.198 286.058C262.728 284.937 261.542 283.486 260.737 281.822C259.932 280.158 259.53 278.328 259.564 276.48C259.617 274.425 260.206 272.42 261.274 270.664C262.342 268.908 263.851 267.462 265.652 266.469C267.202 267.429 268.509 268.735 269.469 270.285C270.429 271.835 271.016 273.586 271.183 275.401C271.351 277.217 271.094 279.046 270.434 280.745C269.774 282.445 268.729 283.968 267.38 285.194C273.858 283.476 280.209 281.312 286.388 278.717C284.672 277.783 283.215 276.436 282.149 274.799C281.083 273.161 280.441 271.285 280.282 269.338C280.122 267.391 280.449 265.435 281.234 263.645C282.019 261.856 283.237 260.291 284.778 259.089C286.465 259.793 287.964 260.88 289.158 262.263C290.352 263.647 291.207 265.288 291.657 267.059C292.106 268.83 292.138 270.681 291.748 272.466C291.359 274.251 290.559 275.92 289.412 277.343C295.496 274.589 301.388 271.428 307.047 267.882C305.232 267.216 303.609 266.114 302.321 264.672C301.033 263.231 300.12 261.495 299.662 259.617C299.204 257.74 299.216 255.779 299.695 253.906C300.175 252.034 301.108 250.309 302.412 248.883C304.186 249.312 305.836 250.148 307.231 251.324C308.626 252.5 309.729 253.984 310.453 255.659C311.176 257.334 311.501 259.154 311.4 260.975C311.3 262.797 310.778 264.57 309.874 266.155C315.374 262.478 320.622 258.439 325.584 254.064C323.686 253.682 321.912 252.838 320.418 251.607C318.924 250.376 317.757 248.796 317.019 247.007C316.281 245.218 315.996 243.275 316.188 241.349C316.381 239.424 317.045 237.575 318.122 235.967C320.174 236.124 322.15 236.815 323.852 237.972C325.554 239.129 326.923 240.712 327.823 242.562C328.521 243.982 328.919 245.53 328.994 247.11C329.068 248.691 328.816 250.269 328.255 251.748C333.152 247.299 337.745 242.525 342.001 237.459C340.05 237.393 338.146 236.842 336.46 235.858C334.775 234.874 333.36 233.487 332.344 231.821C331.327 230.155 330.741 228.262 330.637 226.314C330.534 224.365 330.916 222.422 331.75 220.658C333.555 220.517 335.368 220.795 337.049 221.468C338.729 222.142 340.232 223.193 341.44 224.541C342.648 225.889 343.529 227.497 344.014 229.24C344.5 230.984 344.577 232.815 344.239 234.593C348.224 229.59 351.897 224.346 355.236 218.891C353.354 218.95 351.488 218.522 349.82 217.65C348.151 216.778 346.735 215.491 345.709 213.913C344.682 212.335 344.08 210.519 343.96 208.64C343.841 206.762 344.207 204.884 345.025 203.189C346.99 203.013 348.967 203.372 350.744 204.229C352.521 205.086 354.033 206.409 355.118 208.056C355.965 209.236 356.564 210.574 356.882 211.99C357.199 213.407 357.227 214.873 356.964 216.3C360.476 210.308 363.534 204.062 366.115 197.614C364.252 198.143 362.288 198.205 360.395 197.794C358.502 197.383 356.74 196.513 355.265 195.259C353.789 194.005 352.645 192.407 351.935 190.607C351.224 188.806 350.969 186.858 351.191 184.935C352.88 184.243 354.707 183.952 356.528 184.087C358.348 184.221 360.113 184.777 361.682 185.709C363.251 186.642 364.581 187.926 365.569 189.461C366.556 190.996 367.174 192.739 367.372 194.552C369.69 188.456 371.605 182.214 373.106 175.867C371.359 176.512 369.473 176.684 367.638 176.366C365.803 176.048 364.085 175.251 362.658 174.055C361.23 172.86 360.145 171.308 359.51 169.558C358.876 167.808 358.716 165.922 359.046 164.09C360.668 163.465 362.419 163.249 364.144 163.46C365.869 163.671 367.516 164.302 368.94 165.299C370.364 166.295 371.521 167.626 372.309 169.175C373.097 170.723 373.492 172.441 373.46 174.179C375.165 166.677 376.256 159.049 376.719 151.371C374.975 151.938 373.115 152.052 371.315 151.701C369.515 151.351 367.833 150.548 366.429 149.369C365.026 148.21 363.933 146.721 363.248 145.035C362.562 143.35 362.306 141.521 362.502 139.712C364.111 139.211 365.812 139.079 367.478 139.327C369.145 139.575 370.734 140.195 372.127 141.143C373.52 142.09 374.682 143.339 375.524 144.798C376.367 146.256 376.869 147.886 376.994 149.565C377.297 142.889 377.139 136.199 376.523 129.545C376.523 128.367 376.287 127.189 376.13 126.011C374.716 125.635 373.407 124.937 372.306 123.974C371.204 123.011 370.339 121.807 369.777 120.456C369.215 119.105 368.971 117.643 369.065 116.183C369.159 114.723 369.588 113.304 370.318 112.036C371.767 112.229 373.152 112.754 374.365 113.569C375.579 114.384 376.588 115.469 377.313 116.737C378.039 118.006 378.462 119.425 378.55 120.883C378.638 122.342 378.388 123.802 377.819 125.148C377.819 126.561 378.133 127.896 378.212 129.348L378.683 137.199C378.987 135.732 379.591 134.344 380.457 133.121C381.323 131.898 382.432 130.868 383.715 130.094C384.999 129.32 386.428 128.819 387.914 128.623C389.4 128.427 390.91 128.541 392.35 128.956C392.567 130.749 392.319 132.567 391.631 134.237C390.944 135.907 389.839 137.373 388.423 138.495C387.094 139.654 385.492 140.457 383.768 140.828C382.044 141.199 380.253 141.125 378.565 140.615C378.756 155.459 376.744 170.249 372.596 184.503C373.439 183.063 374.604 181.837 376 180.921C377.396 180.005 378.984 179.423 380.642 179.222C382.299 179.021 383.981 179.205 385.555 179.76C387.13 180.315 388.555 181.226 389.719 182.422C389.216 184.228 388.25 185.872 386.918 187.192C385.586 188.512 383.933 189.463 382.122 189.95C380.311 190.437 378.403 190.444 376.588 189.971C374.773 189.498 373.113 188.56 371.771 187.251C369.787 193.415 367.413 199.446 364.662 205.308C365.981 204.125 367.549 203.253 369.251 202.76C370.954 202.266 372.745 202.162 374.493 202.457C376.24 202.751 377.899 203.436 379.346 204.459C380.792 205.483 381.988 206.82 382.846 208.37C381.77 210.122 380.254 211.562 378.449 212.547C376.644 213.532 374.612 214.027 372.556 213.984C370.664 213.947 368.811 213.444 367.16 212.519C365.509 211.595 364.111 210.278 363.091 208.684C360.021 214.799 356.544 220.7 352.683 226.35C354.038 225.288 355.618 224.549 357.302 224.19C358.985 223.831 360.729 223.861 362.399 224.278C364.07 224.694 365.623 225.486 366.941 226.594C368.259 227.701 369.306 229.094 370.003 230.668C368.867 232.245 367.343 233.502 365.578 234.319C363.814 235.135 361.869 235.484 359.93 235.33C357.992 235.176 356.126 234.525 354.513 233.44C352.899 232.356 351.593 230.873 350.72 229.137C346.923 234.446 342.791 239.507 338.348 244.29C339.967 243.573 341.727 243.23 343.496 243.286C345.266 243.343 347 243.797 348.57 244.615C350.14 245.434 351.505 246.596 352.564 248.014C353.623 249.432 354.348 251.071 354.686 252.808C353.177 254.076 351.374 254.946 349.441 255.336C347.509 255.727 345.509 255.627 343.625 255.045C341.741 254.463 340.034 253.418 338.659 252.005C337.284 250.592 336.286 248.857 335.756 246.959C331.123 251.708 326.177 256.141 320.95 260.228C322.663 259.772 324.457 259.708 326.198 260.042C327.939 260.375 329.582 261.097 331.005 262.154C332.429 263.21 333.595 264.574 334.418 266.144C335.24 267.713 335.698 269.448 335.756 271.219C334.081 272.2 332.189 272.752 330.249 272.826C328.308 272.9 326.38 272.494 324.635 271.643C322.89 270.792 321.382 269.523 320.246 267.95C319.109 266.376 318.38 264.546 318.122 262.622C312.791 266.556 307.216 270.148 301.43 273.378C303.184 273.218 304.952 273.453 306.604 274.065C308.255 274.678 309.748 275.653 310.972 276.918C312.197 278.184 313.122 279.708 313.68 281.378C314.237 283.048 314.413 284.821 314.195 286.568C312.374 287.309 310.397 287.584 308.444 287.366C306.491 287.148 304.623 286.445 303.01 285.322C301.398 284.198 300.093 282.689 299.213 280.932C298.334 279.175 297.908 277.226 297.974 275.263C292.132 278.276 286.097 280.898 279.908 283.114C281.705 283.196 283.459 283.688 285.036 284.553C286.613 285.417 287.971 286.631 289.006 288.101C290.041 289.572 290.725 291.259 291.007 293.035C291.288 294.811 291.159 296.627 290.63 298.345C288.716 298.793 286.72 298.756 284.824 298.236C282.928 297.716 281.193 296.73 279.776 295.368C278.359 294.007 277.305 292.312 276.711 290.439C276.116 288.566 276 286.574 276.373 284.645C270.145 286.747 263.781 288.425 257.325 289.67C259.042 290.06 260.65 290.83 262.03 291.924C263.41 293.017 264.527 294.405 265.299 295.987C266.072 297.569 266.48 299.303 266.493 301.063C266.506 302.823 266.125 304.564 265.377 306.157C263.436 306.269 261.497 305.9 259.733 305.081C257.97 304.263 256.437 303.021 255.27 301.466C254.103 299.911 253.34 298.092 253.047 296.171C252.755 294.249 252.943 292.286 253.594 290.455L241.223 292.025C239.554 290.695 238.278 288.937 237.531 286.939C236.784 284.941 236.594 282.778 236.981 280.68V280.68ZM16.888 164.482C16.7278 162.598 16.0771 160.789 15.0007 159.234C13.9242 157.68 12.4595 156.433 10.752 155.62C9.04443 154.806 7.15361 154.453 5.26738 154.596C3.38116 154.739 1.56521 155.373 0 156.435C0.138341 158.334 0.776826 160.163 1.85068 161.736C2.92452 163.309 4.39552 164.57 6.11442 165.391C7.83331 166.212 9.73894 166.564 11.6379 166.412C13.537 166.259 15.3618 165.607 16.9272 164.522L16.888 164.482Z" fill="#DFE3E6"/>
<path d="M157.097 280.68C156.726 278.656 155.831 276.765 154.501 275.195C153.171 273.624 151.453 272.43 149.517 271.73C148.244 272.835 147.223 274.201 146.523 275.735C145.823 277.269 145.461 278.935 145.461 280.621C145.461 282.307 145.823 283.973 146.523 285.507C147.223 287.041 148.244 288.407 149.517 289.512C142.903 288.792 136.343 287.638 129.88 286.058C131.43 284.871 132.661 283.319 133.461 281.539C134.262 279.76 134.608 277.809 134.467 275.863C134.327 273.917 133.706 272.036 132.658 270.389C131.611 268.743 130.17 267.382 128.466 266.43C126.913 267.386 125.603 268.69 124.639 270.238C123.676 271.786 123.085 273.537 122.914 275.352C122.742 277.168 122.995 278.998 123.652 280.699C124.309 282.4 125.352 283.926 126.699 285.155C120.197 283.446 113.82 281.295 107.612 278.717C109.28 277.863 110.721 276.623 111.814 275.1C112.907 273.578 113.621 271.817 113.896 269.963C114.15 267.903 113.856 265.812 113.042 263.903C112.228 261.993 110.924 260.333 109.261 259.089C107.572 259.789 106.068 260.873 104.87 262.254C103.672 263.636 102.812 265.277 102.359 267.048C101.906 268.819 101.871 270.672 102.258 272.459C102.644 274.246 103.442 275.918 104.588 277.343C98.5119 274.572 92.6216 271.412 86.9534 267.882C88.7753 267.219 90.4052 266.115 91.6983 264.671C92.9914 263.227 93.9078 261.485 94.3662 259.602C94.8246 257.719 94.8109 255.751 94.3262 253.875C93.8416 251.998 92.9009 250.27 91.5878 248.843C89.6108 249.307 87.7872 250.273 86.2939 251.649C84.8007 253.025 83.6885 254.763 83.0653 256.695C82.591 258.23 82.4438 259.847 82.6332 261.443C82.8226 263.039 83.3444 264.577 84.165 265.959C78.5843 262.309 73.2689 258.268 68.2589 253.868C70.1601 253.491 71.9389 252.651 73.4376 251.422C74.9362 250.193 76.1085 248.614 76.8504 246.824C77.5923 245.034 77.881 243.089 77.6909 241.161C77.5007 239.233 76.8376 237.382 75.7603 235.771C73.9592 235.919 72.2161 236.478 70.666 237.407C69.1158 238.335 67.8001 239.607 66.8206 241.125C65.8411 242.643 65.224 244.366 65.0171 246.16C64.8102 247.955 65.0191 249.773 65.6275 251.473C60.7399 247.014 56.1482 242.241 51.8815 237.184C53.8202 237.116 55.7119 236.569 57.3887 235.594C59.0655 234.619 60.4755 233.246 61.4936 231.595C62.5116 229.944 63.1061 228.068 63.2243 226.133C63.3426 224.197 62.9809 222.263 62.1713 220.501C60.3663 220.36 58.5532 220.638 56.8728 221.311C55.1924 221.985 53.6899 223.036 52.4819 224.384C51.2739 225.732 50.3929 227.34 49.9074 229.083C49.4218 230.827 49.3447 232.658 49.6821 234.436C45.6717 229.443 41.9854 224.198 38.646 218.734C40.4523 218.779 42.2421 218.381 43.8582 217.573C45.4742 216.765 46.8672 215.573 47.9148 214.102C49.0337 212.527 49.7142 210.683 49.8867 208.758C50.0592 206.834 49.7175 204.898 48.8966 203.149C46.9455 202.991 44.9878 203.363 43.2314 204.227C41.475 205.091 39.9855 206.414 38.9209 208.056C38.0777 209.238 37.477 210.575 37.1535 211.99C36.8299 213.405 36.7899 214.87 37.0358 216.3C33.5557 210.291 30.498 204.047 27.8848 197.614C29.7503 198.151 31.7196 198.219 33.6176 197.812C35.5156 197.405 37.2836 196.535 38.7644 195.28C40.2451 194.026 41.3927 192.425 42.1052 190.62C42.8177 188.815 43.073 186.862 42.8484 184.935C41.1572 184.235 39.3263 183.939 37.5007 184.069C35.6751 184.2 33.9051 184.754 32.331 185.688C30.7569 186.621 29.4219 187.908 28.432 189.447C27.4421 190.985 26.8245 192.734 26.6281 194.552C24.3054 188.461 22.4027 182.218 20.9333 175.867C22.678 176.503 24.5596 176.668 26.3885 176.346C28.2174 176.023 29.929 175.225 31.3508 174.031C32.7725 172.836 33.8543 171.289 34.4869 169.543C35.1195 167.798 35.2807 165.917 34.9542 164.09C33.2162 163.415 31.3306 163.213 29.4889 163.502C27.6472 163.792 25.9149 164.563 24.468 165.739C23.2206 166.76 22.2196 168.049 21.5396 169.51C20.8597 170.971 20.5182 172.567 20.5406 174.179C18.8727 166.67 17.7829 159.045 17.2808 151.371C19.0037 151.943 20.8435 152.071 22.6289 151.741C24.4143 151.412 26.0873 150.636 27.4921 149.487C28.9449 148.361 30.0861 146.883 30.8078 145.193C31.5294 143.503 31.8076 141.657 31.6159 139.83C29.8681 139.261 28.005 139.143 26.1994 139.486C24.3938 139.83 22.704 140.623 21.2868 141.792C20.0932 142.747 19.108 143.937 18.392 145.287C17.676 146.637 17.2443 148.12 17.1237 149.644C16.7978 142.943 16.9159 136.229 17.4772 129.545L17.8699 126.012C19.29 125.631 20.6024 124.926 21.704 123.953C22.8055 122.98 23.6661 121.764 24.218 120.402C24.77 119.04 24.9982 117.568 24.8849 116.103C24.7715 114.638 24.3196 113.219 23.5647 111.958C22.1119 112.145 20.7223 112.666 19.5041 113.479C18.2859 114.292 17.2723 115.376 16.5422 116.645C15.8122 117.914 15.3856 119.335 15.2957 120.797C15.2058 122.258 15.4551 123.72 16.024 125.069C16.024 126.483 15.7098 127.817 15.6313 129.27C15.6313 131.9 15.2385 134.569 15.2385 137.121C14.7805 134.782 13.5662 132.658 11.7824 131.076C10.4241 129.912 8.79529 129.109 7.04549 128.738C5.29568 128.368 3.48084 128.443 1.76743 128.956C1.5475 130.749 1.79332 132.569 2.4812 134.239C3.16908 135.91 4.27584 137.376 5.69486 138.495C7.02966 139.658 8.6382 140.462 10.3694 140.833C12.1006 141.204 13.8978 141.129 15.592 140.615C15.3244 155.455 17.2972 170.251 21.4439 184.503C20.5958 183.062 19.4269 181.836 18.0278 180.92C16.6287 180.004 15.0373 179.423 13.377 179.222C11.7167 179.021 10.0324 179.205 8.45483 179.76C6.87728 180.315 5.44901 181.226 4.28098 182.422C4.79067 184.229 5.76104 185.872 7.09703 187.19C8.43302 188.509 10.0888 189.458 11.9022 189.945C13.7156 190.432 15.6244 190.439 17.4416 189.967C19.2588 189.495 20.9222 188.559 22.2686 187.251C24.2392 193.414 26.6004 199.445 29.338 205.308C27.1073 203.281 24.1836 202.185 21.1689 202.247C19.1097 202.303 17.1013 202.898 15.344 203.973C13.5867 205.047 12.142 206.564 11.154 208.37C12.2026 210.007 13.6403 211.36 15.3388 212.306C17.0373 213.253 18.9438 213.765 20.8882 213.796C22.8327 213.827 24.7546 213.376 26.4825 212.484C28.2105 211.593 29.6907 210.287 30.7912 208.685C33.8633 214.79 37.3266 220.69 41.1596 226.35C39.8047 225.288 38.2251 224.549 36.5414 224.19C34.8577 223.831 33.1142 223.861 31.4437 224.278C29.7733 224.694 28.22 225.486 26.9022 226.594C25.5844 227.701 24.5369 229.094 23.8396 230.668C24.9911 232.353 26.5776 233.696 28.4307 234.553C30.2838 235.41 32.3345 235.749 34.3651 235.536C36.2509 235.326 38.0522 234.64 39.5985 233.541C41.1448 232.442 42.385 230.966 43.2018 229.255C46.9983 234.564 51.1306 239.625 55.5732 244.407C53.9563 243.698 52.2006 243.361 50.4357 243.421C48.6709 243.481 46.9421 243.937 45.3772 244.755C43.8124 245.572 42.4515 246.731 41.3951 248.146C40.3388 249.56 39.614 251.194 39.2744 252.926C40.7837 254.194 42.5872 255.063 44.5197 255.454C46.4523 255.845 48.452 255.745 50.3358 255.163C52.2195 254.581 53.927 253.535 55.3017 252.123C56.6765 250.71 57.6746 248.975 58.2046 247.077C62.8418 251.836 67.8022 256.269 73.0503 260.345C71.3346 259.883 69.5365 259.814 67.7904 260.144C66.0444 260.474 64.3956 261.195 62.9677 262.252C61.5397 263.309 60.3695 264.676 59.5447 266.249C58.7199 267.822 58.2617 269.562 58.2046 271.337C59.8925 272.355 61.809 272.934 63.7786 273.02C65.7482 273.106 67.7079 272.697 69.4783 271.83C71.2486 270.963 72.7729 269.665 73.9116 268.057C75.0503 266.448 75.767 264.579 75.9959 262.622C81.3076 266.564 86.8701 270.157 92.6482 273.378C90.891 273.212 89.1189 273.442 87.4626 274.052C85.8063 274.662 84.3083 275.636 83.0792 276.902C81.8501 278.168 80.9214 279.694 80.3615 281.367C79.8017 283.04 79.6251 284.818 79.8448 286.568C81.6631 287.301 83.6357 287.568 85.5836 287.347C87.5315 287.125 89.3933 286.421 91.0001 285.298C92.607 284.175 93.9082 282.669 94.7858 280.917C95.6633 279.165 96.0896 277.221 96.0258 275.263C101.875 278.261 107.909 280.884 114.092 283.114C112.309 283.219 110.573 283.728 109.015 284.602C107.458 285.476 106.12 286.693 105.102 288.16C104.084 289.627 103.414 291.307 103.141 293.071C102.868 294.836 103 296.639 103.527 298.345C105.463 298.813 107.486 298.783 109.407 298.258C111.329 297.733 113.085 296.729 114.513 295.341C115.941 293.953 116.994 292.226 117.572 290.321C118.151 288.416 118.237 286.396 117.823 284.448C124.065 286.55 130.442 288.229 136.91 289.473C135.19 289.859 133.578 290.626 132.194 291.717C130.809 292.808 129.687 294.196 128.911 295.778C128.134 297.361 127.723 299.097 127.707 300.859C127.692 302.622 128.072 304.365 128.82 305.961C130.761 306.073 132.7 305.703 134.463 304.885C136.227 304.066 137.76 302.824 138.927 301.27C140.093 299.715 140.857 297.896 141.149 295.975C141.441 294.053 141.254 292.089 140.602 290.258L152.974 291.829C154.582 290.506 155.811 288.782 156.535 286.83C157.26 284.879 157.454 282.77 157.097 280.719V280.68Z" fill="#DFE3E6"/>
<path d="M338.388 149.173L345.85 138.024L336.817 128.092L342.511 115.923L332.104 107.483L335.913 94.6068L324.406 87.8155L326.252 74.547L313.802 69.5223L313.645 56.1752L300.606 53.0348L298.485 39.8055L285.132 38.6278L281.047 25.8697L267.694 26.7333L261.803 14.721L248.724 17.5474L241.066 6.55574L228.498 11.345L219.269 1.64875L207.565 8.24375L197 0L186.396 8.24375L174.771 1.64875L165.541 11.3842L152.974 6.595L145.315 17.5867L132.197 14.7602L126.306 26.7725L112.953 25.9089L108.908 38.6671L95.5544 39.8448L93.3944 53.1133L80.3553 56.2538L80.1982 69.6008L67.7482 74.5863L69.5941 87.8548L58.0475 94.6461L61.8571 107.522L51.4886 115.962L57.1834 128.131L48.1503 138.063L55.6124 149.212L48.1503 160.36L57.1834 170.292L51.4886 182.462L61.8571 190.941L58.0475 203.778L69.5941 210.569L67.7482 223.837L80.1589 228.862L80.316 242.209L93.3551 245.35L95.5152 258.579L108.868 259.757L112.914 272.515L126.267 271.651L132.158 283.663L145.276 280.837L152.934 291.829L165.502 287.118L174.731 296.814L186.396 290.219L197 298.463L207.604 290.219L219.308 296.814L228.537 287.118L241.105 291.829L248.764 280.837L261.842 283.663L267.812 271.651L281.165 272.515L285.249 259.757L298.603 258.579L300.724 245.31L313.763 242.17L313.92 228.823L326.291 223.759L324.445 210.49L335.953 203.699L332.143 190.862L342.551 182.383L336.856 170.214L345.889 160.282L338.427 149.133L338.388 149.173Z" fill="#FECB51"/>
<path d="M197 2.47312L206.426 9.77473L207.447 10.5598L208.625 9.8925L218.954 4.08262L227.987 13.6218L229.166 13.1507L240.28 8.95035L247.075 18.6858L247.86 19.5887H249.117L260.899 17.0763L265.887 27.4792L266.476 28.6568H267.812L279.594 27.8717L283.246 39.2559L283.639 40.5121H284.935L296.718 41.5328L298.603 53.3096V54.605L299.899 54.9191L311.445 57.667V70.7785L312.624 71.2495L323.62 75.6854L321.971 87.4622V88.7577L323.149 89.425L333.753 95.5489L330.376 106.933L329.983 108.189L331.004 108.974L340.194 116.433L335.089 127.189L334.539 128.367L335.403 129.348L343.258 138.142L335.913 149.133L336.699 150.232L343.297 160.046L335.442 168.84L334.578 169.821L335.128 170.999L340.233 181.755L331.043 189.214L330.022 189.999L330.415 191.255L333.792 202.639L322.403 209.313V210.608L324.052 222.385L313.056 226.821L311.877 227.292V240.364L300.331 243.112L299.035 243.426V244.721L297.15 256.498L285.367 257.519H284.032L283.639 258.775L280.026 270.081L268.244 269.296H266.908L266.358 270.473L261.096 281.072L249.313 278.56H247.821L247.035 279.62L240.241 289.355L229.126 285.155L227.752 284.527L226.848 285.469L218.876 294.42L208.547 288.413L207.368 287.746L206.347 288.531L196.921 295.833L186.514 287.707L185.336 288.374L175.163 294.42L166.994 285.783L166.091 284.841L164.913 285.312L153.838 289.513L147.043 279.777L146.258 278.678H144.962L133.572 281.308L128.034 270.866L127.445 269.688H126.149L114.367 270.473L110.675 259.089L110.282 257.833H108.986L97.204 256.812L95.3188 245.036L95.0831 243.74L93.7871 243.348L82.3975 240.6V227.488L81.2193 227.017L70.2225 222.581L71.7935 210.804L71.9898 209.509L70.6152 208.724L60.4039 202.718L63.7815 191.333L64.1743 190.077L63.1531 189.292L53.9629 181.833L58.9115 171.077L59.4613 169.9L58.6758 168.801L50.821 160.007L57.4191 150.193L58.126 149.094L57.4191 147.995L50.7424 138.259L58.5973 129.466L59.4613 128.485L58.9115 127.307L53.8844 116.551L63.0746 109.092L64.0957 108.307L63.703 107.051L60.3254 95.6667L71.9113 88.9932L71.7149 87.6978L70.144 75.921L81.1408 71.4851L82.319 71.014V57.9418L93.8656 55.1938L95.1224 54.8798L95.3188 53.5843L97.2825 41.8076L109.065 40.7869H110.361L110.754 39.5307L114.367 28.225L126.149 29.0101H127.445L128.034 27.8325L133.533 16.9978L144.922 19.628L146.218 19.9028L147.004 18.8428L153.759 9.10738L164.952 13.19L166.13 13.6611L167.034 12.7189L175.203 4.08262L185.532 9.8925L186.71 10.5598L187.771 9.77473L197 2.47312ZM197 0L186.396 8.24375L174.771 1.64875L165.541 11.3842L153.17 6.595L145.315 17.5867L132.197 14.7602L126.306 26.7725L112.953 25.9089L109.026 38.6671L95.6723 39.8448L93.5514 53.074L80.5124 56.2145V69.5615L67.7482 74.5863L69.5941 87.8548L58.0475 94.6461L61.9749 107.522L51.6065 115.962L57.3012 128.131L48.2682 138.063L55.6124 149.173L48.1503 160.321L57.1834 170.253L51.4886 182.422L61.8571 190.902L57.9296 203.738L69.4763 210.53L67.7482 223.798L80.1589 228.823V242.17L93.198 245.31L95.3581 258.54L108.711 259.717L112.639 272.475L125.992 271.612L131.883 283.624L145.236 280.798L153.091 291.789L165.659 287L174.889 296.736L186.671 290.141L196.961 298.384L207.565 290.141L219.347 296.736L228.577 287L241.144 291.789L248.999 280.798L262.078 283.624L267.969 271.612L281.322 272.475L285.249 259.717L298.603 258.54L300.723 245.31L313.763 242.17V228.823L326.291 223.759L324.445 210.49L335.953 203.699L332.025 190.823L342.433 182.383L336.699 170.214L345.732 160.282L338.388 149.173L345.85 138.024L336.817 128.092L342.551 115.923L332.143 107.443L336.07 94.6068L324.406 87.8155L326.291 74.547L313.841 69.5223V56.1752L300.802 53.0348L298.446 39.8055L285.092 38.6278L281.165 25.8697L267.812 26.7333L261.763 14.721L248.685 17.5474L240.83 6.55574L228.498 11.345L219.269 1.64875L207.486 8.24375L197 0Z" fill="#FED36D"/>
<path d="M91.627 193.061C90.922 191.337 90.922 189.406 91.627 187.683C91.963 186.885 92.4573 186.164 93.0802 185.563C93.7091 184.909 94.473 184.4 95.3188 184.071C96.1512 183.717 97.0454 183.53 97.9502 183.521C99.7431 183.522 101.464 184.227 102.742 185.484C103.439 186.147 103.988 186.949 104.352 187.84C104.735 188.733 104.935 189.694 104.941 190.666C104.922 191.544 104.735 192.41 104.391 193.218C104.066 194.033 103.571 194.769 102.938 195.377C102.299 196.018 101.538 196.525 100.699 196.869C99.8604 197.201 98.9702 197.387 98.068 197.418C96.2784 197.401 94.5634 196.698 93.2765 195.455C92.5639 194.782 92.0018 193.966 91.627 193.061V193.061ZM93.5907 192.276C93.8162 192.864 94.1799 193.389 94.6511 193.807C95.0704 194.201 95.5645 194.508 96.1043 194.709C96.6604 194.899 97.2449 194.992 97.8323 194.984C98.4542 194.971 99.0677 194.838 99.639 194.592C100.213 194.336 100.743 193.991 101.21 193.571C101.641 193.157 101.988 192.664 102.231 192.119C102.463 191.584 102.596 191.012 102.624 190.431C102.624 189.811 102.504 189.198 102.27 188.625C102.056 188.041 101.706 187.516 101.249 187.094C100.37 186.297 99.2147 185.874 98.0287 185.916C97.4051 185.914 96.7885 186.048 96.2221 186.309C95.6404 186.55 95.1079 186.896 94.6511 187.329C94.2304 187.737 93.8847 188.215 93.63 188.743C93.3986 189.291 93.2656 189.875 93.2373 190.47C93.23 191.115 93.3501 191.755 93.5907 192.354V192.276ZM98.5786 206.8C98.1566 206.127 97.8636 205.382 97.7145 204.602C97.5567 203.917 97.5567 203.206 97.7145 202.521C97.9125 201.814 98.2608 201.158 98.7357 200.598C99.2845 199.944 99.9505 199.398 100.699 198.988L107.297 195.063L108.476 197.026L101.956 200.951C101.045 201.418 100.333 202.199 99.9532 203.149C99.8428 203.594 99.8242 204.057 99.8985 204.509C99.9728 204.961 100.138 205.393 100.385 205.78C100.818 206.588 101.551 207.195 102.427 207.468C103.428 207.636 104.456 207.411 105.294 206.84L111.893 202.914L113.071 204.877L106.551 208.802C105.811 209.277 104.983 209.598 104.116 209.744C103.394 209.922 102.639 209.922 101.917 209.744C101.217 209.578 100.569 209.241 100.032 208.763C99.4198 208.183 98.9263 207.49 98.5786 206.722V206.8ZM109.261 222.11C108.627 221.339 108.135 220.462 107.808 219.519C107.468 218.55 107.321 217.523 107.376 216.496H109.575C109.527 217.276 109.606 218.059 109.811 218.813C110.028 219.563 110.403 220.259 110.911 220.854C111.273 221.341 111.782 221.699 112.364 221.875C112.592 221.941 112.833 221.951 113.066 221.903C113.299 221.855 113.516 221.751 113.699 221.6C113.863 221.458 113.997 221.284 114.092 221.089C114.14 220.87 114.14 220.642 114.092 220.422C114.08 220.083 113.999 219.749 113.856 219.441C113.856 219.048 113.464 218.577 113.228 217.988C112.922 217.407 112.659 216.803 112.442 216.182C112.251 215.68 112.145 215.149 112.128 214.612C112.115 214.148 112.223 213.687 112.442 213.277C112.688 212.805 113.027 212.387 113.438 212.05C113.85 211.713 114.327 211.462 114.838 211.315C115.344 211.214 115.864 211.214 116.37 211.315C116.916 211.401 117.438 211.602 117.902 211.904C118.423 212.232 118.887 212.643 119.276 213.12C119.859 213.805 120.311 214.59 120.611 215.437C120.889 216.233 121.047 217.067 121.083 217.91H118.923C118.879 217.215 118.747 216.529 118.53 215.868C118.345 215.283 118.052 214.737 117.666 214.259C117.318 213.808 116.837 213.479 116.291 213.317C116.081 213.269 115.862 213.269 115.652 213.317C115.441 213.364 115.244 213.458 115.074 213.592C114.899 213.733 114.752 213.906 114.642 214.102C114.58 214.333 114.58 214.577 114.642 214.808C114.673 215.175 114.766 215.533 114.917 215.868C114.917 216.261 115.309 216.771 115.545 217.36C115.847 217.939 116.096 218.543 116.291 219.166C116.478 219.653 116.559 220.176 116.527 220.697C116.526 221.147 116.418 221.591 116.213 221.992C115.967 222.465 115.628 222.882 115.217 223.22C114.805 223.557 114.329 223.807 113.817 223.955C113.286 224.066 112.738 224.066 112.207 223.955C111.658 223.833 111.138 223.607 110.675 223.288C110.148 222.967 109.672 222.57 109.261 222.11V222.11ZM123.557 218.067L130.626 224.936L129.173 226.428L123.793 221.207L121.436 223.798L126.228 228.509L124.735 230.001L120.022 225.368L117.548 227.724L123.046 233.023L121.554 234.515L114.288 227.684L123.557 218.067ZM127.759 239.854C127.132 239.372 126.577 238.804 126.11 238.166C125.732 237.572 125.49 236.901 125.403 236.203C125.294 235.478 125.361 234.737 125.599 234.044C125.865 233.23 126.278 232.472 126.817 231.806L131.451 225.722L133.297 227.096L128.702 233.102C128.024 233.868 127.672 234.867 127.72 235.889C127.92 236.774 128.42 237.564 129.136 238.122C129.852 238.68 130.74 238.973 131.648 238.951C132.634 238.718 133.493 238.113 134.043 237.263L138.678 231.217L140.524 232.631L135.968 238.598C135.428 239.3 134.778 239.91 134.043 240.403C133.434 240.822 132.734 241.091 132.001 241.188C131.305 241.361 130.577 241.361 129.88 241.188C129.097 240.878 128.378 240.426 127.759 239.854V239.854ZM145.59 235.81L149.989 238.166C150.858 238.599 151.643 239.184 152.306 239.893C152.896 240.557 153.349 241.331 153.641 242.17C153.921 242.99 154.028 243.858 153.955 244.721C153.895 245.646 153.626 246.545 153.17 247.352C152.763 248.158 152.187 248.868 151.481 249.432C150.825 249.976 150.062 250.377 149.242 250.61C148.387 250.847 147.495 250.927 146.611 250.845C145.639 250.721 144.695 250.429 143.823 249.982L139.424 247.705L145.59 235.81ZM144.804 247.98C145.367 248.281 145.979 248.48 146.611 248.569C147.183 248.669 147.767 248.669 148.339 248.569C148.885 248.373 149.39 248.081 149.832 247.705C150.283 247.296 150.667 246.82 150.97 246.292C151.262 245.764 151.447 245.183 151.515 244.584C151.582 243.984 151.531 243.378 151.363 242.798C151.159 242.257 150.867 241.753 150.499 241.306C150.076 240.811 149.555 240.41 148.968 240.129L146.611 238.951L142.409 246.802L144.804 247.98ZM157.765 241.817L159.886 242.68L154.859 255.164L152.699 254.3L157.765 241.817ZM161.81 243.622L163.892 244.25L167.819 255.085L170.49 246.331L172.728 246.998L168.801 259.717L167.112 259.089L162.91 247.901L160.161 256.93L157.922 256.263L161.81 243.622ZM174.692 247.312L176.97 247.705L176.067 253.201L182.351 254.261L183.254 248.765L185.532 249.157L183.333 262.269L181.055 261.876L181.958 256.38L175.674 255.321L174.771 260.816L172.414 260.424L174.692 247.312ZM187.417 249.393L197.236 249.864V251.984L189.695 251.591V255.007L196.372 255.321V257.44L189.695 257.126V260.659L197.314 261.052V263.133L187.417 262.661V249.393ZM198.807 249.668H201.163L201.556 262.936H199.199L198.807 249.668ZM203.323 249.668L209.214 249C209.954 248.859 210.713 248.859 211.453 249C212.284 249.166 213.038 249.596 213.604 250.226C214.171 250.855 214.518 251.651 214.595 252.494C214.69 252.987 214.69 253.493 214.595 253.986C214.507 254.421 214.334 254.835 214.084 255.203C213.847 255.572 213.54 255.892 213.181 256.145C212.827 256.44 212.43 256.678 212.003 256.852L215.93 261.562L213.181 261.876L209.254 257.637L206.387 257.951L206.897 262.583L204.619 262.818L203.323 249.668ZM209.803 255.556C210.513 255.528 211.186 255.233 211.689 254.732C211.919 254.521 212.093 254.257 212.196 253.962C212.299 253.667 212.327 253.352 212.278 253.044C212.268 252.728 212.18 252.42 212.023 252.146C211.865 251.872 211.642 251.641 211.374 251.473C210.737 251.133 210.002 251.022 209.293 251.159L205.915 251.552L206.426 255.988L209.803 255.556ZM224.845 259.874C223.898 260.05 222.926 260.05 221.978 259.874C221.102 259.741 220.261 259.434 219.504 258.971C218.755 258.512 218.102 257.912 217.58 257.205C217.053 256.471 216.667 255.646 216.441 254.771C216.265 253.877 216.265 252.957 216.441 252.062C216.568 251.203 216.861 250.376 217.305 249.628C218.049 248.423 219.129 247.46 220.413 246.861C221.697 246.261 223.129 246.049 224.531 246.252C225.408 246.386 226.249 246.693 227.006 247.155C227.763 247.604 228.419 248.206 228.93 248.922C229.457 249.656 229.843 250.481 230.069 251.356C230.245 252.25 230.245 253.17 230.069 254.064C229.924 254.92 229.632 255.743 229.205 256.498C228.234 258.105 226.667 259.262 224.845 259.717V259.874ZM224.335 257.794C224.932 257.68 225.495 257.43 225.979 257.062C226.463 256.694 226.854 256.219 227.123 255.674C227.398 255.148 227.572 254.576 227.634 253.986C227.75 253.376 227.75 252.75 227.634 252.141C227.492 251.537 227.239 250.965 226.888 250.453C226.547 249.96 226.105 249.545 225.592 249.236C225.071 248.883 224.483 248.642 223.864 248.529C223.254 248.413 222.627 248.413 222.018 248.529C221.4 248.674 220.823 248.956 220.329 249.354C219.872 249.7 219.497 250.142 219.229 250.649C218.941 251.172 218.755 251.745 218.679 252.337C218.565 252.947 218.565 253.573 218.679 254.182C218.822 254.786 219.075 255.358 219.426 255.87C219.763 256.352 220.19 256.765 220.682 257.087C221.726 257.731 222.98 257.942 224.178 257.676L224.335 257.794ZM233.682 242.994L238.159 240.953C239.045 240.523 240.005 240.27 240.987 240.207C241.867 240.142 242.75 240.262 243.579 240.56C244.398 240.827 245.148 241.27 245.779 241.856C246.452 242.454 246.988 243.19 247.35 244.015C247.732 244.827 247.946 245.709 247.978 246.606C248.011 247.464 247.864 248.32 247.546 249.118C247.202 249.935 246.709 250.68 246.093 251.316C245.4 252.006 244.588 252.564 243.697 252.965L239.181 255.164L233.682 242.994ZM242.715 251.238C243.307 250.96 243.851 250.589 244.326 250.139C244.73 249.727 245.038 249.231 245.229 248.686C245.438 248.149 245.531 247.574 245.504 246.998C245.458 246.385 245.298 245.786 245.032 245.232C244.771 244.663 244.413 244.145 243.972 243.701C243.553 243.306 243.059 242.999 242.519 242.798C241.977 242.605 241.405 242.512 240.83 242.523C240.174 242.563 239.532 242.737 238.945 243.033L236.589 244.093L240.516 252.337L242.715 251.238ZM245.582 237.381L253.987 232.277L255.087 234.083L248.685 238.009L250.452 240.914L256.147 237.381L257.247 239.186L251.552 242.719L253.398 245.742L259.917 241.817L261.017 243.622L252.534 248.726L245.582 237.381ZM257.875 229.529L259.839 227.841L269.579 232.945L265.887 222.62L267.851 220.972L272.407 234.711L270.836 236.085L257.875 229.529ZM282.539 224.662C281.928 225.403 281.164 226.005 280.301 226.428C279.496 226.8 278.632 227.026 277.748 227.096C276.866 227.138 275.985 227.005 275.156 226.703C274.299 226.406 273.51 225.939 272.839 225.329C272.171 224.717 271.625 223.984 271.228 223.17C270.839 222.384 270.599 221.532 270.522 220.658C270.481 219.767 270.601 218.876 270.875 218.027C271.173 217.107 271.669 216.263 272.328 215.554C272.94 214.813 273.703 214.211 274.567 213.788C275.374 213.423 276.237 213.197 277.12 213.12C278.001 213.078 278.882 213.211 279.712 213.513C280.569 213.81 281.357 214.277 282.029 214.887C282.719 215.488 283.281 216.222 283.678 217.046C284.055 217.835 284.282 218.687 284.346 219.558C284.406 220.45 284.285 221.344 283.993 222.189C283.71 223.116 283.212 223.963 282.539 224.662V224.662ZM280.968 223.209C281.388 222.763 281.697 222.226 281.872 221.639C282 221.07 282 220.48 281.872 219.912C281.816 219.321 281.643 218.747 281.361 218.224C281.075 217.673 280.688 217.181 280.222 216.771C279.81 216.416 279.347 216.124 278.848 215.908C278.279 215.708 277.683 215.602 277.08 215.594C276.5 215.63 275.929 215.763 275.392 215.986C274.821 216.259 274.313 216.646 273.899 217.125C273.48 217.57 273.17 218.108 272.996 218.695C272.883 219.265 272.883 219.852 272.996 220.422C273.069 221.01 273.242 221.58 273.506 222.11C273.793 222.66 274.179 223.153 274.645 223.563C275.108 223.998 275.656 224.333 276.256 224.544C276.804 224.765 277.392 224.872 277.984 224.858C278.565 224.826 279.136 224.693 279.672 224.465C280.183 224.136 280.624 223.71 280.968 223.209V223.209ZM277.669 209.47L278.965 207.585L288.195 213.866L292.122 208.096L293.89 209.273L288.627 217.125L277.669 209.47ZM286.899 199.028L284.935 202.718L282.971 201.697L288.077 192.354L289.962 193.375L287.999 197.065L297.817 202.364L296.639 204.445L286.899 199.028ZM290.159 187.015L290.944 185.052L305.554 184.503L304.651 186.858H301.116L298.76 192.668L301.273 195.141L300.37 197.34L290.159 187.015ZM298.917 187.015H293.144L297.071 190.941L298.917 187.015Z" fill="white"/>
<path d="M197 273.3C172.429 273.3 148.41 266.017 127.98 252.371C107.551 238.726 91.6287 219.332 82.2276 196.641C72.8265 173.95 70.3687 148.982 75.1651 124.895C79.9615 100.808 91.7967 78.6839 109.174 61.3205C126.551 43.957 148.689 32.1344 172.789 27.3479C196.889 22.5613 221.868 25.0258 244.566 34.4297C267.264 43.8336 286.663 59.7544 300.308 80.1787C313.953 100.603 321.232 124.613 321.225 149.173C321.193 182.09 308.094 213.651 284.803 236.923C261.512 260.196 229.933 273.279 197 273.3V273.3ZM197 25.9875C172.625 25.9875 148.797 33.2122 128.53 46.7479C108.263 60.2837 92.4664 79.5226 83.1385 102.032C73.8105 124.541 71.3699 149.309 76.1252 173.205C80.8806 197.1 92.6183 219.05 109.854 236.278C127.09 253.505 149.05 265.238 172.956 269.991C196.863 274.744 221.643 272.304 244.163 262.981C266.683 253.657 285.931 237.868 299.473 217.611C313.015 197.353 320.243 173.536 320.243 149.173C320.212 116.511 307.217 85.1969 284.111 62.102C261.006 39.0071 229.676 26.0187 197 25.9875V25.9875ZM197 278.717C171.366 278.717 146.309 271.12 124.995 256.885C103.682 242.65 87.0698 222.418 77.2603 198.747C67.4508 175.076 64.8842 149.029 69.885 123.9C74.8859 98.7705 87.2296 75.6879 105.355 57.5708C123.481 39.4536 146.574 27.1157 171.715 22.1172C196.856 17.1187 222.915 19.6841 246.598 29.489C270.28 39.2939 290.522 55.898 304.763 77.2015C319.004 98.505 326.605 123.551 326.605 149.173C326.605 183.53 312.95 216.48 288.645 240.774C264.339 265.069 231.373 278.717 197 278.717V278.717ZM197 23.5536C172.143 23.5536 147.845 30.921 127.177 44.7242C106.509 58.5274 90.4011 78.1464 80.8888 101.1C71.3765 124.054 68.8877 149.312 73.737 173.68C78.5863 198.047 90.556 220.431 108.132 237.999C125.709 255.567 148.102 267.531 172.481 272.378C196.861 277.225 222.13 274.737 245.095 265.229C268.059 255.722 287.688 239.621 301.497 218.963C315.307 198.305 322.678 174.018 322.678 149.173C322.678 115.856 309.437 83.9047 285.868 60.3466C262.298 36.7884 230.332 23.5536 197 23.5536V23.5536Z" fill="#DEA648"/>
<path d="M163.852 182.462H170.922C172.399 182.433 173.872 182.645 175.281 183.09C176.468 183.5 177.563 184.14 178.502 184.974C179.391 185.762 180.089 186.742 180.544 187.84C180.991 188.991 181.218 190.216 181.212 191.451C181.22 192.703 180.98 193.944 180.505 195.102C180.041 196.206 179.344 197.197 178.462 198.007C177.521 198.867 176.411 199.522 175.203 199.93C173.782 200.39 172.297 200.615 170.804 200.598H163.892L163.852 182.462ZM170.922 196.28C172.243 196.349 173.543 195.93 174.574 195.102C175.048 194.673 175.421 194.144 175.665 193.553C175.91 192.963 176.02 192.325 175.988 191.687C176.026 191.054 175.918 190.42 175.673 189.835C175.427 189.25 175.052 188.729 174.574 188.311C173.558 187.452 172.25 187.016 170.922 187.094H168.88V196.28H170.922ZM183.882 182.462H188.988V200.676H183.882V182.462ZM198.61 182.305H203.48L211.335 200.676H205.837L204.501 197.418H197.432L196.136 200.676H190.873L198.61 182.305ZM203.048 193.532L201.006 188.429L198.964 193.61L203.048 193.532ZM220.211 200.99C218.633 200.995 217.065 200.73 215.577 200.205C214.126 199.721 212.79 198.947 211.649 197.928L214.477 194.552C216.142 195.946 218.236 196.723 220.407 196.751C220.942 196.785 221.474 196.662 221.939 196.397C222.107 196.315 222.249 196.186 222.346 196.026C222.444 195.866 222.493 195.682 222.489 195.495C222.534 195.327 222.534 195.151 222.489 194.984C222.356 194.802 222.181 194.653 221.978 194.552C221.679 194.379 221.363 194.234 221.036 194.121L219.543 193.728L216.794 192.943C216.029 192.707 215.302 192.363 214.634 191.922C213.998 191.488 213.481 190.901 213.131 190.215C212.781 189.529 212.609 188.766 212.631 187.997C212.614 187.182 212.789 186.375 213.142 185.641C213.47 184.939 213.937 184.311 214.516 183.796C215.189 183.268 215.946 182.857 216.755 182.579C217.711 182.299 218.704 182.166 219.701 182.187C221.123 182.164 222.541 182.363 223.903 182.776C225.105 183.186 226.223 183.811 227.202 184.621L224.688 188.154C223.911 187.58 223.05 187.13 222.136 186.819C221.317 186.522 220.454 186.362 219.583 186.348C219.098 186.311 218.615 186.435 218.208 186.701C218.069 186.79 217.953 186.912 217.871 187.055C217.789 187.199 217.743 187.36 217.737 187.526C217.692 187.706 217.692 187.895 217.737 188.075C217.86 188.267 218.038 188.417 218.247 188.507C218.549 188.666 218.865 188.797 219.19 188.9C219.583 188.9 220.133 189.174 220.761 189.292C221.719 189.509 222.664 189.785 223.589 190.117C224.357 190.379 225.084 190.749 225.749 191.216C226.315 191.623 226.774 192.162 227.084 192.786C227.413 193.471 227.575 194.224 227.555 194.984C227.564 195.852 227.376 196.711 227.006 197.497C226.658 198.219 226.147 198.85 225.513 199.342C224.824 199.88 224.037 200.28 223.196 200.519C222.225 200.794 221.22 200.926 220.211 200.912V200.99ZM112.207 78.5119L111.107 80.8673L109.222 80.0036L110.793 76.3136L111.893 74.9789L122.772 84.1255L121.201 86.0098L112.207 78.5119ZM128.427 78.5119C127.818 79.1345 127.061 79.5935 126.228 79.8466C125.433 80.1185 124.585 80.1992 123.753 80.0821C122.872 79.9898 122.017 79.7229 121.24 79.297C120.389 78.8536 119.618 78.2696 118.962 77.5698C118.285 76.8879 117.715 76.1069 117.273 75.2537C116.895 74.4493 116.656 73.5864 116.566 72.702C116.496 71.8647 116.603 71.022 116.88 70.2289C117.171 69.4059 117.656 68.6652 118.294 68.0698C118.898 67.4403 119.656 66.9801 120.494 66.7351C121.287 66.4588 122.136 66.378 122.968 66.4996C123.836 66.598 124.676 66.8646 125.442 67.2847C126.293 67.7281 127.064 68.3121 127.72 69.012C128.398 69.6842 128.956 70.4676 129.37 71.3281C129.779 72.123 130.033 72.9893 130.116 73.8797C130.166 74.7165 130.06 75.5553 129.802 76.3528C129.522 77.1719 129.051 77.9123 128.427 78.5119ZM126.856 76.9417C127.24 76.5812 127.513 76.1179 127.642 75.607C127.76 75.1035 127.76 74.5794 127.642 74.076C127.552 73.494 127.352 72.9344 127.052 72.4272C126.731 71.8542 126.334 71.3262 125.874 70.857C125.43 70.3744 124.913 69.9638 124.342 69.6401C123.83 69.3343 123.274 69.1092 122.693 68.9727C122.176 68.8549 121.639 68.8549 121.122 68.9727C120.623 69.0882 120.163 69.3317 119.787 69.6793C119.402 70.0398 119.13 70.5031 119.001 71.014C118.882 71.5174 118.882 72.0416 119.001 72.545C119.127 73.1172 119.325 73.6712 119.59 74.1937C119.913 74.7763 120.324 75.3058 120.808 75.764C121.284 76.2389 121.811 76.6602 122.379 77.0202C122.882 77.307 123.424 77.5186 123.989 77.6483C124.506 77.7661 125.043 77.7661 125.56 77.6483C126.038 77.5305 126.482 77.3019 126.856 76.9809V76.9417ZM138.363 70.1111C137.675 70.6421 136.865 70.9929 136.007 71.1318C135.192 71.3081 134.348 71.3081 133.533 71.1318C132.679 70.9144 131.877 70.5272 131.176 69.9934C130.383 69.4506 129.692 68.773 129.134 67.9913C128.568 67.224 128.118 66.3775 127.799 65.4789C127.532 64.6286 127.413 63.7392 127.445 62.8488C127.478 62.0144 127.692 61.1971 128.074 60.4542C128.468 59.6722 129.048 58.9984 129.762 58.4914C130.458 57.9646 131.263 57.6023 132.119 57.4315C132.932 57.2364 133.78 57.2364 134.593 57.4315C135.445 57.6339 136.247 58.0079 136.95 58.5306C137.733 59.0843 138.423 59.7603 138.992 60.5327C139.559 61.3139 140.008 62.1735 140.327 63.0843C140.598 63.92 140.718 64.7974 140.681 65.6752C140.653 66.5104 140.439 67.3288 140.052 68.0698C139.677 68.886 139.095 69.5898 138.363 70.1111ZM137.067 68.2661C137.497 67.9812 137.826 67.5695 138.01 67.0884C138.221 66.6069 138.315 66.0823 138.285 65.5574C138.258 64.9795 138.139 64.4096 137.931 63.8694C137.689 63.2497 137.358 62.668 136.95 62.1422C136.585 61.5887 136.118 61.1093 135.575 60.729C135.119 60.354 134.6 60.0618 134.043 59.8653C133.541 59.682 133.004 59.6149 132.472 59.6691C131.959 59.7161 131.469 59.9065 131.058 60.2186C130.639 60.5308 130.313 60.9516 130.116 61.4356C129.905 61.9034 129.811 62.4152 129.841 62.9273C129.868 63.518 129.987 64.1008 130.194 64.6546C130.461 65.2625 130.79 65.8413 131.176 66.3818C131.562 66.9179 132.026 67.3941 132.551 67.795C133.006 68.172 133.524 68.4645 134.083 68.6587C134.589 68.823 135.122 68.8896 135.653 68.8549C136.171 68.7944 136.66 68.5904 137.067 68.2661ZM143.233 58.0596C142.833 58.2786 142.392 58.4123 141.937 58.4521C141.496 58.4891 141.052 58.4218 140.641 58.2558C140.228 58.096 139.844 57.8706 139.502 57.5885C139.151 57.2767 138.858 56.9044 138.638 56.4893C138.406 56.0746 138.247 55.6232 138.167 55.1546C138.091 54.713 138.091 54.2616 138.167 53.8199C138.269 53.3944 138.456 52.9939 138.717 52.6422C138.993 52.2609 139.357 51.9512 139.777 51.7394C140.184 51.5023 140.642 51.3676 141.113 51.3468C141.526 51.2498 141.956 51.2498 142.369 51.3468C142.794 51.4827 143.183 51.7106 143.508 52.0141C144.221 52.6421 144.681 53.5068 144.804 54.448C144.903 54.8875 144.903 55.3432 144.804 55.7827C144.719 56.2141 144.531 56.6183 144.255 56.9604C144 57.3979 143.651 57.7733 143.233 58.0596ZM142.526 56.6856C142.728 56.588 142.9 56.4382 143.024 56.2519C143.149 56.0655 143.221 55.8493 143.233 55.6257C143.278 55.1209 143.168 54.6146 142.919 54.1732C142.668 53.7175 142.284 53.3482 141.82 53.1133C141.624 53.0165 141.409 52.9661 141.191 52.9661C140.973 52.9661 140.758 53.0165 140.563 53.1133C140.366 53.2171 140.198 53.3684 140.075 53.5535C139.951 53.7386 139.876 53.9517 139.856 54.1732C139.828 54.6642 139.937 55.1533 140.17 55.5864C140.394 56.0587 140.766 56.4447 141.23 56.6856C141.431 56.7889 141.653 56.8428 141.878 56.8428C142.104 56.8428 142.326 56.7889 142.526 56.6856ZM147.357 47.853L149.085 46.9109L146.729 64.1835L144.961 65.1256L147.357 47.853ZM154.152 60.4149C153.751 60.6339 153.31 60.7676 152.856 60.8075C152.414 60.8444 151.97 60.7772 151.56 60.6112C151.151 60.4423 150.768 60.2178 150.421 59.9438C150.069 59.6321 149.777 59.2598 149.557 58.8447C149.324 58.4299 149.165 57.9785 149.085 57.51C149.009 57.0683 149.009 56.6169 149.085 56.1753C149.188 55.7498 149.375 55.3493 149.635 54.9976C149.911 54.6162 150.275 54.3066 150.696 54.0947C151.109 53.8747 151.564 53.7411 152.031 53.7022C152.458 53.6073 152.9 53.6073 153.327 53.7022C153.735 53.8474 154.109 54.0745 154.427 54.3695C155.139 54.9975 155.599 55.8621 155.723 56.8034C155.822 57.2427 155.822 57.6987 155.723 58.1381C155.638 58.5694 155.449 58.9736 155.173 59.3158C154.918 59.7532 154.569 60.1287 154.152 60.4149ZM153.445 58.9625C153.646 58.8648 153.818 58.7151 153.943 58.5287C154.067 58.3423 154.139 58.1262 154.152 57.9025C154.196 57.3978 154.086 56.8915 153.837 56.4501C153.599 55.9751 153.213 55.5896 152.738 55.3509C152.543 55.2541 152.327 55.2037 152.109 55.2037C151.891 55.2037 151.676 55.2541 151.481 55.3509C151.284 55.4547 151.116 55.606 150.993 55.7911C150.869 55.9762 150.794 56.1892 150.774 56.4108C150.749 56.9142 150.858 57.4152 151.088 57.8633C151.312 58.3355 151.685 58.7215 152.149 58.9625C152.349 59.0657 152.571 59.1196 152.797 59.1196C153.022 59.1196 153.244 59.0657 153.445 58.9625ZM167.701 54.9583C166.689 55.2939 165.624 55.4403 164.559 55.3902C163.473 55.3198 162.409 55.0538 161.417 54.605L162.281 52.446C163.043 52.7848 163.85 53.0097 164.677 53.1133C165.483 53.2076 166.301 53.1272 167.073 52.8778C167.704 52.7149 168.267 52.3578 168.683 51.8571C168.851 51.6598 168.965 51.422 169.013 51.1673C169.062 50.9126 169.042 50.6498 168.958 50.4047C168.911 50.171 168.803 49.9541 168.644 49.7766C168.462 49.6063 168.248 49.4729 168.016 49.384C167.664 49.3361 167.307 49.3361 166.955 49.384C166.393 49.35 165.829 49.35 165.266 49.384H163.185C162.619 49.3902 162.059 49.2835 161.535 49.07C161.071 48.894 160.654 48.6116 160.318 48.2456C159.963 47.8031 159.696 47.2967 159.532 46.7539C159.396 46.1994 159.396 45.6202 159.532 45.0658C159.597 44.5204 159.785 43.9968 160.082 43.5349C160.388 43.0426 160.789 42.6157 161.26 42.2787C161.808 41.9133 162.403 41.6228 163.028 41.415C163.926 41.1174 164.871 40.9844 165.816 41.0225C166.716 41.0729 167.603 41.2581 168.448 41.5721L167.741 43.7704C167.041 43.5323 166.316 43.3742 165.581 43.2993C164.93 43.2562 164.277 43.3361 163.656 43.5349C163.059 43.678 162.531 44.0252 162.164 44.5163C162.06 44.7166 162.006 44.9386 162.006 45.164C162.006 45.3893 162.06 45.6114 162.164 45.8117C162.223 46.0488 162.345 46.2656 162.517 46.4398C162.687 46.6446 162.923 46.7835 163.185 46.8324C163.551 46.8655 163.919 46.8655 164.284 46.8324H168.094C168.645 46.8934 169.187 47.0253 169.704 47.2249C170.138 47.4168 170.526 47.6977 170.843 48.0493C171.205 48.4361 171.462 48.9091 171.589 49.4233C171.723 50.0178 171.723 50.6345 171.589 51.229C171.509 51.7887 171.308 52.3244 171 52.7993C170.675 53.302 170.247 53.7301 169.744 54.0555C169.118 54.4689 168.428 54.7741 167.701 54.9583ZM176.42 38.1961L178.698 37.8035L187.221 50.758L184.589 51.0327L182.626 47.8923L176.067 49.07L175.203 52.6815L172.689 53.0741L176.42 38.1961ZM181.408 46.0472L178.03 40.944L176.734 46.9109L181.408 46.0472ZM191.148 38.8634H186.671V36.5866L198.06 36.1155V38.4709H193.622L194.133 50.2476H191.619L191.148 38.8634ZM200.692 36.5081H203.166L202.538 50.5617H200.103L200.692 36.5081ZM210.039 51.5823C208.98 51.4406 207.955 51.1081 207.015 50.6009C206.035 50.117 205.176 49.4195 204.501 48.5596L206.19 47.1072C206.741 47.7284 207.375 48.2701 208.075 48.7166C208.777 49.1157 209.552 49.3693 210.353 49.4625C210.99 49.6004 211.655 49.5174 212.238 49.227C212.464 49.116 212.658 48.9499 212.802 48.744C212.946 48.5381 213.036 48.2991 213.063 48.0493C213.125 47.8178 213.125 47.5742 213.063 47.3427C212.989 47.1138 212.853 46.9099 212.67 46.7539C212.407 46.4954 212.101 46.2831 211.767 46.1258L210.196 45.4977C209.532 45.2635 208.888 44.9747 208.272 44.634C207.765 44.3813 207.301 44.0501 206.897 43.6526C206.553 43.2984 206.297 42.868 206.151 42.3964C206.028 41.8404 206.028 41.2644 206.151 40.7084C206.227 40.1411 206.413 39.5941 206.701 39.0989C207.005 38.6245 207.408 38.2211 207.883 37.9163C208.357 37.6114 208.892 37.4123 209.45 37.3324C210.101 37.2339 210.763 37.2339 211.414 37.3324C212.354 37.465 213.269 37.7431 214.124 38.1568C214.926 38.5731 215.655 39.1167 216.284 39.7663L214.713 41.4543C214.173 40.9481 213.58 40.5006 212.945 40.1196C212.371 39.8125 211.746 39.6129 211.099 39.5308C210.509 39.4052 209.893 39.5031 209.371 39.8056C209.164 39.9108 208.987 40.0668 208.857 40.259C208.726 40.4512 208.646 40.6734 208.625 40.9047C208.584 41.1385 208.584 41.3776 208.625 41.6113C208.69 41.8655 208.843 42.0883 209.057 42.2394C209.348 42.4707 209.664 42.6683 210 42.8283L211.571 43.4956C212.224 43.7411 212.855 44.0432 213.456 44.3985C213.933 44.6611 214.37 44.9917 214.752 45.3799C215.063 45.7514 215.303 46.1773 215.459 46.6361C215.565 47.1542 215.565 47.6882 215.459 48.2063C215.401 48.792 215.212 49.3571 214.906 49.86C214.6 50.3628 214.185 50.7904 213.692 51.1113C213.173 51.4246 212.6 51.6377 212.003 51.7394C211.318 51.7864 210.63 51.7335 209.961 51.5823H210.039ZM219.936 38.6279L230.147 41.2188L229.598 43.3778L221.743 41.415L220.8 45.3406L227.791 47.1072L227.241 49.2662L220.329 47.539L218.915 53.1133L216.559 52.5245L219.936 38.6279ZM237.845 43.9667L239.966 44.7518L240.437 60.2579L238.002 59.2765V55.5864L231.718 53.1133L229.126 55.7435L226.77 54.8013L237.845 43.9667ZM237.845 53.2703V47.1072L233.407 51.4253L237.845 53.2703ZM243.108 64.6546L245.661 63.4769C245.02 62.9306 244.476 62.2803 244.051 61.5533C243.656 60.8469 243.39 60.076 243.265 59.2765C243.128 58.471 243.128 57.6481 243.265 56.8426C243.417 56.0016 243.709 55.1921 244.129 54.448C244.616 53.6048 245.255 52.8593 246.014 52.2497C246.743 51.6866 247.568 51.2609 248.449 50.9935C249.358 50.7512 250.304 50.6846 251.238 50.7972C252.238 50.902 253.203 51.2235 254.066 51.7394C254.581 52.0325 255.068 52.3743 255.519 52.76C255.913 53.0998 256.268 53.4815 256.579 53.8984C256.852 54.2812 257.089 54.6886 257.286 55.1154C257.49 55.5287 257.648 55.9631 257.757 56.4108L255.479 57.1959C255.261 56.4875 254.944 55.8134 254.537 55.1939C254.13 54.5729 253.577 54.0608 252.927 53.7022C252.366 53.3955 251.754 53.1958 251.12 53.1133C250.511 53.0789 249.901 53.1452 249.313 53.3096C248.71 53.5006 248.15 53.8073 247.664 54.2125C247.154 54.6257 246.728 55.1319 246.407 55.7042C246.057 56.2835 245.818 56.9223 245.7 57.5885C245.602 58.1996 245.602 58.8224 245.7 59.4335C245.842 60.0374 246.095 60.6097 246.446 61.1215C246.829 61.63 247.31 62.0571 247.86 62.3777C248.522 62.7894 249.281 63.0195 250.06 63.0451C250.813 63.0778 251.568 62.9984 252.298 62.8095L252.887 65.0079L251.473 65.3219C251.004 65.3806 250.529 65.3806 250.06 65.3219C249.566 65.3174 249.076 65.238 248.606 65.0864C248.075 64.9315 247.562 64.721 247.075 64.4583L244.326 66.4996L243.108 64.6546ZM265.573 59.4728L267.38 60.886L263.452 75.8818L261.371 74.3115L262.352 70.7785L257.168 66.7351L253.908 68.5409L251.945 66.9707L265.573 59.4728ZM263.138 68.4231L264.709 62.5347L259.211 65.4789L263.138 68.4231ZM264.316 56.8426C264.857 56.4135 265.468 56.0815 266.123 55.8612C266.391 55.8033 266.669 55.8086 266.935 55.8767C267.201 55.9449 267.447 56.074 267.654 56.2538C267.867 56.4207 268.052 56.6193 268.204 56.8426C268.363 57.0692 268.507 57.3052 268.636 57.5492L269.029 58.2166C269.129 58.3863 269.262 58.5333 269.422 58.6484C269.509 58.7347 269.614 58.8007 269.729 58.8414C269.845 58.8822 269.968 58.8967 270.089 58.8839C270.378 58.8186 270.656 58.7128 270.914 58.5699L271.7 59.7476C271.169 60.1825 270.554 60.5033 269.893 60.6897C269.629 60.7629 269.35 60.7688 269.082 60.7072C268.815 60.6455 268.567 60.518 268.361 60.3364C268.158 60.1595 267.974 59.9622 267.812 59.7476L267.262 58.9625L267.026 58.4129C266.915 58.2402 266.783 58.0819 266.633 57.9418C266.444 57.7936 266.205 57.7234 265.966 57.7455C265.677 57.8109 265.4 57.9166 265.141 58.0596L264.316 56.8426ZM268.636 81.6524C267.915 80.9178 267.365 80.0331 267.026 79.0615C266.677 78.1889 266.517 77.2525 266.555 76.3136C266.591 75.3917 266.804 74.4854 267.183 73.6442C267.592 72.7708 268.165 71.9844 268.872 71.3281C269.571 70.6763 270.383 70.1575 271.268 69.7971C272.146 69.4669 273.079 69.307 274.017 69.326C275.003 69.3603 275.972 69.5895 276.869 70.0006C277.765 70.4116 278.571 70.9962 279.24 71.7206C279.953 72.4469 280.502 73.3169 280.851 74.2723C281.197 75.1455 281.358 76.0814 281.322 77.0202C281.286 77.9547 281.073 78.8739 280.694 79.7288C280.278 80.5979 279.705 81.383 279.005 82.0449C278.328 82.7242 277.51 83.2468 276.609 83.5759C275.736 83.9247 274.799 84.0852 273.86 84.047C272.912 84.0444 271.976 83.8439 271.111 83.4582C270.171 83.0308 269.33 82.4164 268.636 81.6524ZM270.325 80.0821C270.772 80.5654 271.322 80.9411 271.935 81.1813C272.485 81.4481 273.093 81.5697 273.703 81.5346C274.335 81.5348 274.961 81.4149 275.549 81.1813C276.159 80.932 276.718 80.5727 277.198 80.1214C277.668 79.6547 278.053 79.1101 278.337 78.5119C278.638 77.9547 278.812 77.3382 278.848 76.7061C278.891 76.0913 278.797 75.4745 278.573 74.9004C278.363 74.2682 278.014 73.6913 277.552 73.2123C277.106 72.718 276.556 72.3291 275.941 72.0739C275.38 71.8436 274.78 71.7237 274.174 71.7206C273.538 71.7189 272.909 71.8527 272.328 72.1132C271.718 72.3625 271.159 72.7218 270.679 73.1731C270.186 73.6133 269.785 74.1471 269.5 74.7433C269.204 75.3001 269.029 75.9138 268.988 76.5433C268.948 77.1729 269.042 77.8038 269.265 78.3941C269.486 79.0299 269.848 79.6072 270.325 80.0821Z" fill="white"/>
<path d="M226.766 94.2344L194.891 169H174.031L205.965 98.9219H165.301V83.6875H226.766V94.2344Z" fill="white"/>
</g>
<defs>
<clipPath id="clip0">
<rect width="394" height="306" fill="white"/>
</clipPath>
</defs>
</svg>
