<svg width="400" height="300" viewBox="0 0 400 300" fill="none" xmlns="http://www.w3.org/2000/svg">
<path d="M352.4 58.09H159.76V201.72H352.4V58.09Z" fill="#2C323F"/>
<path d="M352.39 202.22H159.76C159.627 202.22 159.5 202.167 159.406 202.074C159.313 201.98 159.26 201.853 159.26 201.72V58.09C159.26 57.9574 159.313 57.8302 159.406 57.7365C159.5 57.6427 159.627 57.59 159.76 57.59H352.39C352.523 57.59 352.65 57.6427 352.744 57.7365C352.837 57.8302 352.89 57.9574 352.89 58.09V201.72C352.89 201.853 352.837 201.98 352.744 202.074C352.65 202.167 352.523 202.22 352.39 202.22ZM160.26 201.22H351.89V58.59H160.26V201.22Z" fill="#231F20"/>
<path d="M249.22 141.22H187.42C187.287 141.22 187.16 141.167 187.066 141.074C186.973 140.98 186.92 140.853 186.92 140.72C186.92 140.587 186.973 140.46 187.066 140.366C187.16 140.273 187.287 140.22 187.42 140.22H249.22C249.353 140.22 249.48 140.273 249.574 140.366C249.667 140.46 249.72 140.587 249.72 140.72C249.72 140.853 249.667 140.98 249.574 141.074C249.48 141.167 249.353 141.22 249.22 141.22V141.22Z" fill="#D1D3D4"/>
<path d="M249.22 150H187.42C187.287 150 187.16 149.947 187.066 149.854C186.973 149.76 186.92 149.633 186.92 149.5C186.92 149.367 186.973 149.24 187.066 149.146C187.16 149.053 187.287 149 187.42 149H249.22C249.353 149 249.48 149.053 249.574 149.146C249.667 149.24 249.72 149.367 249.72 149.5C249.72 149.633 249.667 149.76 249.574 149.854C249.48 149.947 249.353 150 249.22 150V150Z" fill="#D1D3D4"/>
<path d="M249.22 158.72H187.42C187.287 158.72 187.16 158.667 187.066 158.574C186.973 158.48 186.92 158.353 186.92 158.22C186.92 158.087 186.973 157.96 187.066 157.866C187.16 157.773 187.287 157.72 187.42 157.72H249.22C249.353 157.72 249.48 157.773 249.574 157.866C249.667 157.96 249.72 158.087 249.72 158.22C249.72 158.286 249.707 158.351 249.682 158.411C249.657 158.472 249.62 158.527 249.574 158.574C249.527 158.62 249.472 158.657 249.411 158.682C249.351 158.707 249.286 158.72 249.22 158.72Z" fill="#D1D3D4"/>
<path d="M341 193.72H171.16C171.027 193.72 170.9 193.667 170.806 193.574C170.713 193.48 170.66 193.353 170.66 193.22V66.59C170.66 66.4574 170.713 66.3302 170.806 66.2365C170.9 66.1427 171.027 66.09 171.16 66.09H341C341.133 66.09 341.26 66.1427 341.354 66.2365C341.447 66.3302 341.5 66.4574 341.5 66.59V193.22C341.5 193.353 341.447 193.48 341.354 193.574C341.26 193.667 341.133 193.72 341 193.72ZM171.67 192.72H340.49V67.09H171.66L171.67 192.72Z" fill="#D1D3D4"/>
<path d="M329.91 150H267.26C267.195 150 267.13 149.987 267.07 149.962C267.01 149.937 266.956 149.9 266.91 149.853C266.864 149.806 266.828 149.751 266.804 149.691C266.78 149.63 266.769 149.565 266.77 149.5C266.77 149.384 266.809 149.271 266.88 149.18C267.49 146.54 267.15 107.03 266.77 80.81C266.768 80.7081 266.797 80.6081 266.855 80.5239C266.912 80.4396 266.994 80.3753 267.09 80.34C267.184 80.3007 267.287 80.2921 267.386 80.3155C267.485 80.3388 267.574 80.3929 267.64 80.47L330.28 149.16C330.343 149.233 330.384 149.323 330.398 149.418C330.412 149.514 330.399 149.612 330.36 149.7C330.322 149.788 330.259 149.863 330.179 149.916C330.099 149.969 330.006 149.998 329.91 150ZM267.84 149H328.77L267.77 82.11C268.13 105.71 268.53 142.88 267.84 149V149Z" fill="#D1D3D4"/>
<path d="M316.74 154.58C316.611 154.58 316.487 154.53 316.393 154.441C316.3 154.351 316.245 154.229 316.24 154.1C316.24 153.96 315.81 140.57 327.33 138C327.463 137.971 327.601 137.996 327.716 138.069C327.83 138.142 327.911 138.257 327.94 138.39C327.969 138.523 327.944 138.661 327.871 138.776C327.798 138.89 327.683 138.971 327.55 139C316.83 141.38 317.24 154 317.24 154.08C317.243 154.212 317.194 154.34 317.105 154.437C317.015 154.534 316.892 154.592 316.76 154.6L316.74 154.58Z" fill="#D1D3D4"/>
<path d="M277.52 150C277.387 150 277.26 149.947 277.166 149.854C277.073 149.76 277.02 149.633 277.02 149.5V142H267.27C267.138 141.997 267.013 141.944 266.919 141.851C266.826 141.758 266.773 141.632 266.77 141.5C266.77 141.367 266.823 141.24 266.916 141.146C267.01 141.053 267.137 141 267.27 141H277.52C277.653 141 277.78 141.053 277.874 141.146C277.967 141.24 278.02 141.367 278.02 141.5V149.5C278.02 149.633 277.967 149.76 277.874 149.854C277.78 149.947 277.653 150 277.52 150Z" fill="#D1D3D4"/>
<path d="M258.7 110.16V109.49C258.698 109.239 258.718 108.988 258.76 108.74C258.799 108.519 258.866 108.304 258.96 108.1C259.048 107.891 259.166 107.696 259.31 107.52C259.479 107.311 259.663 107.113 259.86 106.93L260.65 106.17C260.866 105.974 261.058 105.753 261.22 105.51C261.386 105.24 261.469 104.927 261.46 104.61C261.47 104.186 261.316 103.774 261.03 103.46C260.871 103.301 260.68 103.179 260.469 103.099C260.259 103.02 260.034 102.986 259.81 103C259.568 102.997 259.329 103.044 259.107 103.138C258.885 103.233 258.685 103.373 258.52 103.55C258.361 103.72 258.239 103.921 258.16 104.14C258.079 104.358 258.032 104.588 258.02 104.82L255.86 104.63C255.919 104.107 256.071 103.599 256.31 103.13C256.526 102.702 256.825 102.321 257.19 102.01C257.562 101.707 257.985 101.473 258.44 101.32C258.927 101.157 259.437 101.076 259.95 101.08C260.435 101.081 260.917 101.155 261.38 101.3C261.813 101.442 262.217 101.662 262.57 101.95C262.918 102.238 263.198 102.6 263.39 103.01C263.597 103.469 263.699 103.967 263.69 104.47C263.695 104.808 263.651 105.145 263.56 105.47C263.481 105.745 263.363 106.008 263.21 106.25C263.051 106.492 262.866 106.717 262.66 106.92C262.44 107.14 262.2 107.36 261.93 107.6C261.66 107.84 261.51 107.97 261.36 108.12C261.227 108.26 261.11 108.414 261.01 108.58C260.921 108.731 260.86 108.897 260.83 109.07C260.786 109.284 260.766 109.502 260.77 109.72V110.18L258.7 110.16ZM258.35 112.6C258.344 112.414 258.377 112.229 258.448 112.056C258.519 111.884 258.625 111.728 258.76 111.6C258.891 111.47 259.048 111.367 259.219 111.298C259.391 111.23 259.575 111.196 259.76 111.2C260.13 111.194 260.488 111.33 260.76 111.58C260.901 111.704 261.011 111.859 261.084 112.032C261.157 112.205 261.19 112.393 261.18 112.58C261.186 112.766 261.153 112.952 261.082 113.124C261.011 113.296 260.905 113.452 260.77 113.58C260.639 113.711 260.483 113.814 260.311 113.882C260.139 113.951 259.955 113.984 259.77 113.98C259.584 113.979 259.401 113.942 259.23 113.87C259.064 113.805 258.912 113.71 258.78 113.59C258.647 113.474 258.542 113.331 258.47 113.17C258.388 112.991 258.347 112.797 258.35 112.6V112.6Z" fill="#D1D3D4"/>
<path d="M225.89 142.49C223.27 142.82 213.16 150.23 210.54 150.72C210.54 150.72 206.06 155.21 200.68 159.96C203.527 164.913 205.901 170.122 207.77 175.52C212.43 170.37 216.54 165.21 217.77 163.76C218.798 162.36 219.91 161.025 221.1 159.76C222.93 158.03 225.35 156.83 227.4 155.37C229.677 153.9 231.578 151.917 232.95 149.58C233.503 148.657 233.748 147.582 233.65 146.51C233.19 143.83 228.19 142.19 225.89 142.49Z" fill="white"/>
<path d="M207.77 176H207.68C207.594 175.984 207.514 175.947 207.447 175.891C207.381 175.834 207.33 175.762 207.3 175.68C205.442 170.31 203.081 165.127 200.25 160.2C200.191 160.101 200.169 159.985 200.188 159.872C200.206 159.759 200.263 159.655 200.35 159.58C205.65 154.9 210.14 150.4 210.18 150.36C210.255 150.288 210.348 150.24 210.45 150.22C211.63 150 214.69 148.12 217.65 146.29C221.1 144.17 224.37 142.17 225.82 141.98C228.31 141.67 233.62 143.36 234.1 146.42C234.225 147.602 233.962 148.791 233.35 149.81C231.939 152.223 229.988 154.277 227.65 155.81C226.91 156.33 226.12 156.81 225.36 157.3C223.94 158.122 222.601 159.076 221.36 160.15C220.549 160.963 219.803 161.839 219.13 162.77C218.78 163.23 218.44 163.68 218.13 164.11L217.32 165.11C215.61 167.21 212.05 171.58 208.16 175.9C208.047 175.981 207.908 176.017 207.77 176ZM201.32 160C203.966 164.65 206.201 169.522 208 174.56C211.65 170.47 214.94 166.43 216.56 164.44L217.38 163.44C217.73 163.02 218.07 162.58 218.38 162.13C219.085 161.158 219.864 160.242 220.71 159.39C221.985 158.261 223.364 157.256 224.83 156.39C225.58 155.92 226.36 155.39 227.07 154.93C229.274 153.492 231.121 151.57 232.47 149.31C232.976 148.48 233.2 147.508 233.11 146.54C232.75 144.21 228.03 142.68 225.95 142.94C224.71 143.1 221.24 145.23 218.18 147.12C215.12 149.01 212.18 150.78 210.79 151.12C210.1 151.87 206.06 155.86 201.32 160.07V160Z" fill="#231F20"/>
<path d="M215.05 159.11L252.5 109.49L253.27 109.9L217.13 160.23L215.05 159.11Z" fill="#231F20"/>
<path d="M217.13 160.73C217.046 160.729 216.964 160.709 216.89 160.67L214.81 159.55C214.747 159.514 214.692 159.465 214.649 159.407C214.606 159.348 214.576 159.281 214.56 159.21C214.545 159.141 214.545 159.069 214.56 159C214.576 158.931 214.606 158.866 214.65 158.81L252.1 109.19C252.17 109.094 252.273 109.027 252.389 109.002C252.505 108.976 252.626 108.993 252.73 109.05L253.51 109.46C253.573 109.493 253.628 109.54 253.672 109.597C253.715 109.654 253.745 109.72 253.76 109.79C253.775 109.859 253.775 109.93 253.762 109.998C253.748 110.067 253.72 110.132 253.68 110.19L217.54 160.52C217.494 160.586 217.433 160.64 217.361 160.676C217.29 160.713 217.21 160.731 217.13 160.73V160.73ZM215.8 158.94L216.98 159.58L249.68 114.05L215.8 158.94Z" fill="#231F20"/>
<path d="M209.7 151.5C212.47 148.5 215.36 143.91 216.7 142.13C216.965 141.735 217.305 141.395 217.7 141.13C218.19 140.882 218.731 140.755 219.28 140.76C222.613 140.545 225.959 140.825 229.21 141.59C230.238 141.745 231.193 142.217 231.94 142.94C232.156 143.156 232.284 143.445 232.3 143.75C232.3 144.29 231.79 144.68 231.3 144.94C229.729 145.67 228.031 146.088 226.3 146.17C223.84 146.42 222.98 145.89 220.51 145.86C220.82 145.86 221.45 148.43 220.83 150.08C220.124 151.656 219.103 153.072 217.83 154.24" fill="white"/>
<path d="M217.87 154.78C217.74 154.779 217.615 154.729 217.52 154.64C217.473 154.594 217.436 154.538 217.411 154.477C217.385 154.416 217.372 154.351 217.372 154.285C217.372 154.219 217.385 154.154 217.411 154.093C217.436 154.032 217.473 153.976 217.52 153.93L217.61 153.84C218.797 152.749 219.747 151.424 220.4 149.95C220.733 148.756 220.687 147.488 220.27 146.32C220.199 146.274 220.141 146.21 220.102 146.135C220.063 146.059 220.045 145.975 220.05 145.89C220.055 145.76 220.11 145.637 220.203 145.546C220.296 145.455 220.42 145.402 220.55 145.4C221.407 145.414 222.262 145.485 223.11 145.61C224.161 145.786 225.23 145.819 226.29 145.71C227.955 145.633 229.589 145.232 231.1 144.53C231.32 144.42 231.82 144.12 231.82 143.78C231.794 143.598 231.71 143.43 231.58 143.3C230.895 142.666 230.034 142.254 229.11 142.12C225.912 141.365 222.62 141.085 219.34 141.29C218.87 141.288 218.406 141.39 217.98 141.59C217.655 141.822 217.374 142.11 217.15 142.44C216.73 142.98 216.15 143.81 215.49 144.77C213.84 147.237 212.036 149.599 210.09 151.84C210 151.938 209.874 151.996 209.741 152.002C209.608 152.008 209.478 151.96 209.38 151.87C209.282 151.78 209.224 151.654 209.218 151.521C209.212 151.388 209.26 151.258 209.35 151.16C211.271 148.943 213.048 146.605 214.67 144.16C215.34 143.16 215.92 142.36 216.36 141.8C216.66 141.304 217.089 140.899 217.602 140.63C218.115 140.36 218.692 140.236 219.27 140.27C222.65 140.051 226.044 140.338 229.34 141.12C230.474 141.29 231.524 141.815 232.34 142.62C232.634 142.928 232.805 143.334 232.82 143.76C232.82 144.2 232.6 144.84 231.57 145.39C229.941 146.145 228.183 146.583 226.39 146.68C225.253 146.793 224.107 146.756 222.98 146.57C222.49 146.5 221.98 146.44 221.37 146.4C221.734 147.664 221.734 149.006 221.37 150.27C220.673 151.872 219.651 153.312 218.37 154.5L218.28 154.59C218.23 154.65 218.168 154.699 218.097 154.732C218.026 154.765 217.948 154.781 217.87 154.78V154.78Z" fill="#231F20"/>
<path d="M157.11 132C157.11 132 171.33 180.15 175.71 177.85C180.09 175.55 205.87 153 205.87 153L217.16 168C217.16 168 182.71 222.75 171.74 216.9C160.77 211.05 149.35 180.11 149.35 180.11L157.11 132Z" fill="#4347FE"/>
<path d="M86.15 173.32L69.64 169.14C70.27 168 80.3 137.87 89.49 132C97.39 125.43 113.25 124.79 131.2 124.09C136.949 123.755 142.715 124.319 148.29 125.76C169.23 131.55 160.16 174.26 160.16 174.26C160.16 174.26 162.45 194.71 166.05 235.12C166.05 235.12 136.59 240.8 85.22 237.93C85.22 238 86.64 178.64 86.15 173.32Z" fill="#4347FE"/>
<path d="M140.55 186.51L135.31 196.75L124.52 188.15L127.03 148.68L124.52 145.54L127.68 140.72L132.07 145.21L129.17 148.54L140.55 186.51Z" fill="white"/>
<path d="M133.25 120.77L135.93 134.21C135.93 134.21 131.71 143.14 122.73 141.65C113.75 140.16 112 133.44 112 133.44L108.31 107.72C108.31 107.72 100.64 98.0601 104.5 87.6301C108.36 77.2001 132.65 76.7701 134.81 91.1801C134.81 91.1801 139.94 106.31 139.38 113.18C138.82 120.05 133.25 120.77 133.25 120.77Z" fill="white"/>
<path d="M124.7 142.32C124.03 142.314 123.361 142.254 122.7 142.14C113.5 140.62 111.64 133.86 111.56 133.57L107.88 107.92C107.04 106.79 100.39 97.42 104.08 87.46C105.78 82.88 112.27 78.73 121.41 79.68C127.41 80.3 134.23 83.62 135.41 91.11C135.6 91.65 140.54 106.33 139.98 113.27C139.49 119.21 135.42 120.78 133.98 121.16L136.56 134.16C136.594 134.261 136.594 134.37 136.56 134.47C136.35 134.51 132.56 142.32 124.7 142.32ZM119.08 80.56C113.2 80.56 106.78 82.9 104.97 87.8C101.25 97.8 108.62 107.31 108.7 107.41C108.753 107.48 108.788 107.563 108.8 107.65L112.49 133.37C112.55 133.58 114.27 139.74 122.81 141.16C130.81 142.48 134.81 135.3 135.41 134.16L132.76 120.87C132.745 120.802 132.745 120.732 132.76 120.665C132.776 120.597 132.807 120.534 132.85 120.48C132.89 120.425 132.941 120.379 132.999 120.345C133.058 120.311 133.123 120.289 133.19 120.28C133.4 120.28 138.36 119.6 138.88 113.2C139.43 106.46 134.39 91.51 134.34 91.36C133.44 85.36 128.55 81.43 121.26 80.68C120.55 80.6 119.82 80.56 119.08 80.56Z" fill="#231F20"/>
<path d="M139.57 111.13C139.57 111.13 138.66 108.42 128.66 110.13C118.66 111.84 119 122.89 113.06 118C107.12 113.11 110.3 104.51 109.69 96.51C108.9 86.26 106.69 86.51 104.5 87.62C96.75 91.38 99.22 107.55 109.76 121.95C113.49 127.05 136.76 136.55 139.85 122.69C141.58 115 139.57 111.13 139.57 111.13Z" fill="#D1D3D4"/>
<path d="M129.53 130.41C121.53 130.41 111.75 125.52 109.36 122.26C101.9 112.06 98.11 100.32 99.92 93.04C100.159 91.7983 100.676 90.6265 101.431 89.612C102.185 88.5974 103.159 87.7661 104.28 87.18C104.72 86.8922 105.224 86.7178 105.747 86.6724C106.271 86.627 106.797 86.7121 107.28 86.92C108.83 87.81 109.71 90.76 110.15 96.48C110.28 98.8965 110.24 101.319 110.03 103.73C109.68 109.19 109.36 114.35 113.35 117.62C114.023 118.315 114.943 118.718 115.91 118.74C117.01 118.63 117.91 117.47 119.13 116.01C120.98 113.7 123.53 110.55 128.54 109.67C138.3 107.96 139.8 110.46 139.99 110.93C140.18 111.4 141.99 115.27 140.31 122.81C139.966 124.643 139.065 126.326 137.73 127.629C136.395 128.931 134.691 129.791 132.85 130.09C131.757 130.308 130.645 130.415 129.53 130.41ZM106.19 87.62C105.672 87.6649 105.171 87.8218 104.72 88.08C103.727 88.5973 102.866 89.3349 102.202 90.2361C101.539 91.1374 101.09 92.1786 100.89 93.28C99.14 100.28 102.89 111.7 110.16 121.67C112.7 125.14 124.72 130.77 132.68 129.11C134.338 128.861 135.875 128.098 137.075 126.928C138.276 125.758 139.078 124.241 139.37 122.59C141.03 115.16 139.14 111.39 139.12 111.36C139.12 111.27 137.85 109.12 128.76 110.7C124.12 111.51 121.76 114.38 119.95 116.7C118.68 118.28 117.58 119.7 116.06 119.8C115.449 119.812 114.843 119.7 114.277 119.469C113.711 119.239 113.198 118.895 112.77 118.46C108.38 114.87 108.77 109.46 109.09 103.74C109.29 101.375 109.33 99 109.21 96.63C108.81 91.49 108.01 88.54 106.83 87.86C106.646 87.7164 106.423 87.6327 106.19 87.62Z" fill="#231F20"/>
<path d="M111.13 106.7C110.795 105.85 110.295 105.074 109.658 104.418C109.021 103.763 108.26 103.24 107.42 102.88C106.766 102.548 106.053 102.349 105.322 102.294C104.591 102.239 103.856 102.329 103.16 102.56C100.91 103.38 100.27 105.56 100.73 107.7C100.905 108.612 101.201 109.496 101.61 110.33C102.032 111.159 102.615 111.895 103.325 112.496C104.036 113.097 104.858 113.55 105.745 113.83C106.633 114.109 107.567 114.209 108.493 114.123C109.419 114.037 110.319 113.768 111.14 113.33" fill="white"/>
<path d="M107.83 114.63C107.074 114.631 106.322 114.517 105.6 114.29C104.651 113.992 103.771 113.51 103.011 112.869C102.251 112.229 101.625 111.444 101.17 110.56C100.739 109.685 100.426 108.757 100.24 107.8C99.67 105.11 100.72 102.92 102.99 102.09C103.749 101.834 104.551 101.732 105.349 101.79C106.148 101.848 106.927 102.066 107.64 102.43C108.549 102.811 109.371 103.371 110.059 104.078C110.746 104.784 111.284 105.621 111.64 106.54C111.662 106.602 111.671 106.668 111.666 106.734C111.662 106.8 111.644 106.864 111.614 106.923C111.584 106.982 111.543 107.034 111.492 107.077C111.442 107.119 111.383 107.151 111.32 107.17C111.258 107.192 111.192 107.201 111.126 107.196C111.06 107.192 110.996 107.174 110.937 107.144C110.878 107.114 110.826 107.073 110.783 107.022C110.741 106.972 110.709 106.913 110.69 106.85C110.376 106.066 109.91 105.352 109.32 104.748C108.73 104.144 108.026 103.662 107.25 103.33C106.655 103.026 106.006 102.844 105.34 102.792C104.674 102.741 104.005 102.821 103.37 103.03C101.58 103.68 100.79 105.39 101.26 107.59C101.424 108.463 101.703 109.311 102.09 110.11C102.487 110.875 103.032 111.553 103.693 112.106C104.354 112.659 105.118 113.075 105.941 113.331C106.764 113.587 107.63 113.677 108.488 113.596C109.346 113.515 110.179 113.265 110.94 112.86C111.058 112.798 111.196 112.785 111.323 112.824C111.451 112.864 111.558 112.952 111.62 113.07C111.682 113.188 111.695 113.326 111.656 113.454C111.616 113.581 111.528 113.688 111.41 113.75C110.307 114.334 109.078 114.636 107.83 114.63V114.63Z" fill="#231F20"/>
<path d="M134.56 107.18C134.3 107.18 134.05 107.18 133.8 107.18C131.565 106.979 129.501 105.9 128.061 104.179C126.621 102.458 125.923 100.235 126.12 98V98C126.264 96.3652 126.88 94.8073 127.893 93.5164C128.906 92.2254 130.273 91.2571 131.827 90.7294C133.381 90.2016 135.055 90.1373 136.645 90.5442C138.235 90.951 139.672 91.8116 140.782 93.0209C141.891 94.2303 142.625 95.7362 142.893 97.3553C143.162 98.9743 142.954 100.637 142.295 102.139C141.635 103.642 140.553 104.921 139.18 105.819C137.806 106.718 136.201 107.198 134.56 107.2V107.18ZM127.11 98.06C126.938 100.03 127.554 101.988 128.823 103.504C130.092 105.021 131.911 105.972 133.88 106.15C135.35 106.281 136.825 105.973 138.12 105.265C139.414 104.557 140.47 103.481 141.153 102.173C141.836 100.865 142.116 99.3842 141.958 97.9173C141.799 96.4503 141.209 95.0633 140.262 93.9318C139.315 92.8002 138.054 91.9748 136.638 91.5601C135.222 91.1454 133.714 91.1599 132.307 91.6018C130.899 92.0436 129.654 92.8931 128.729 94.0427C127.804 95.1922 127.24 96.5903 127.11 98.06V98.06Z" fill="#231F20"/>
<path d="M117.88 107.94H117.12C116.013 107.843 114.936 107.529 113.951 107.016C112.966 106.502 112.092 105.799 111.378 104.948C110.665 104.096 110.127 103.112 109.794 102.052C109.461 100.992 109.341 99.8766 109.44 98.7701H109.94H109.44C109.641 96.5369 110.719 94.4744 112.438 93.0347C114.157 91.5951 116.376 90.8957 118.61 91.0901C120.765 91.2992 122.758 92.3268 124.179 93.9613C125.599 95.5958 126.339 97.7127 126.245 99.876C126.151 102.039 125.232 104.085 123.676 105.59C122.12 107.096 120.045 107.948 117.88 107.97V107.94ZM117.88 92.0301C115.942 92.0028 114.069 92.7322 112.66 94.0633C111.251 95.3945 110.416 97.2225 110.332 99.1592C110.249 101.096 110.924 102.989 112.214 104.436C113.503 105.883 115.306 106.771 117.24 106.91C118.71 107.044 120.186 106.738 121.482 106.031C122.777 105.324 123.834 104.249 124.517 102.941C125.201 101.633 125.48 100.151 125.321 98.6841C125.161 97.2169 124.569 95.8303 123.62 94.7001C122.994 93.9465 122.224 93.3251 121.355 92.8719C120.486 92.4186 119.536 92.1427 118.56 92.0601C118.3 92.0001 118.08 92.0001 117.85 92.0001L117.88 92.0301Z" fill="#231F20"/>
<path d="M162.64 202.22C162.517 202.22 162.398 202.174 162.307 202.091C162.216 202.008 162.16 201.893 162.15 201.77L156.62 140.77C156.614 140.704 156.621 140.638 156.641 140.575C156.661 140.512 156.692 140.454 156.735 140.403C156.82 140.301 156.942 140.237 157.075 140.225C157.208 140.213 157.34 140.254 157.442 140.34C157.544 140.425 157.608 140.547 157.62 140.68L163.15 201.68C163.161 201.811 163.12 201.941 163.036 202.042C162.952 202.144 162.831 202.207 162.7 202.22H162.64Z" fill="#231F20"/>
<path d="M126.89 109.72C126.452 109.722 126.014 109.695 125.58 109.64C125.45 109.618 125.333 109.546 125.255 109.44C125.177 109.333 125.143 109.201 125.16 109.07C125.17 109.005 125.192 108.942 125.226 108.886C125.26 108.83 125.305 108.781 125.358 108.742C125.411 108.703 125.471 108.675 125.535 108.659C125.599 108.643 125.665 108.64 125.73 108.65C126.47 108.76 128.73 108.86 129.37 107.99C129.77 107.45 128.16 104.46 125.93 101.59C125.849 101.485 125.814 101.353 125.83 101.221C125.847 101.09 125.915 100.971 126.02 100.89C126.124 100.808 126.255 100.771 126.386 100.786C126.518 100.801 126.637 100.867 126.72 100.97C128.12 102.77 131.25 107.12 130.18 108.58C129.48 109.53 128 109.72 126.89 109.72Z" fill="#231F20"/>
<path d="M119.802 102.323C120.437 102.308 120.935 101.575 120.915 100.686C120.894 99.7973 120.363 99.0886 119.728 99.1034C119.093 99.1181 118.595 99.8507 118.615 100.74C118.636 101.629 119.167 102.337 119.802 102.323Z" fill="#231F20"/>
<path d="M131.076 101.105C131.678 100.904 131.938 100.057 131.656 99.2133C131.375 98.3699 130.658 97.8494 130.056 98.0506C129.453 98.2518 129.193 99.0986 129.475 99.942C129.757 100.785 130.473 101.306 131.076 101.105Z" fill="#231F20"/>
<path d="M129.92 120.29C127.618 120.245 125.396 119.44 123.6 118C123.551 117.956 123.511 117.903 123.482 117.843C123.453 117.784 123.437 117.719 123.433 117.653C123.429 117.587 123.439 117.521 123.46 117.459C123.482 117.397 123.516 117.339 123.56 117.29C123.604 117.241 123.657 117.201 123.717 117.172C123.776 117.143 123.841 117.127 123.907 117.123C123.973 117.119 124.039 117.129 124.101 117.15C124.163 117.172 124.221 117.206 124.27 117.25C124.51 117.47 130.15 122.4 136.36 116.4C136.406 116.353 136.46 116.316 136.52 116.291C136.58 116.266 136.645 116.253 136.71 116.253C136.775 116.253 136.84 116.266 136.9 116.291C136.96 116.316 137.014 116.353 137.06 116.4C137.107 116.446 137.144 116.502 137.169 116.563C137.195 116.624 137.208 116.689 137.208 116.755C137.208 116.821 137.195 116.886 137.169 116.947C137.144 117.008 137.107 117.064 137.06 117.11C136.139 118.086 135.034 118.87 133.809 119.416C132.583 119.961 131.261 120.259 129.92 120.29V120.29Z" fill="#231F20"/>
<path d="M136.07 204.43C136.07 204.43 150.87 202.59 154.8 203.43C160.919 205.035 166.332 208.626 170.19 213.64C170.963 214.563 171.495 215.662 171.74 216.84C171.843 217.431 171.767 218.04 171.521 218.587C171.275 219.134 170.871 219.595 170.36 219.91C169.03 220.56 167.5 219.78 166.11 219.32C162.95 218.27 159.52 218.89 156.22 219.32C154.928 219.533 153.615 219.587 152.31 219.48C149.31 219.13 146.78 217.35 144.03 216.19C139.03 214.09 133.26 214.25 128.03 215.08" fill="white"/>
<path d="M169.24 220.7C168.345 220.641 167.466 220.431 166.64 220.08L165.95 219.83C163.21 218.92 160.18 219.33 157.25 219.72L156.25 219.85C154.928 220.065 153.584 220.115 152.25 220C150.139 219.638 148.108 218.907 146.25 217.84C145.45 217.44 144.63 217.02 143.81 216.68C139.67 214.94 134.53 214.58 128.07 215.61C127.939 215.627 127.807 215.593 127.7 215.515C127.594 215.437 127.522 215.32 127.5 215.19C127.49 215.125 127.493 215.059 127.509 214.995C127.525 214.931 127.553 214.871 127.592 214.818C127.631 214.765 127.68 214.72 127.736 214.686C127.792 214.652 127.855 214.63 127.92 214.62C134.56 213.57 139.92 213.94 144.2 215.76C145.05 216.12 145.89 216.54 146.7 216.94C148.444 217.956 150.353 218.657 152.34 219.01C153.601 219.116 154.871 219.066 156.12 218.86L157.12 218.73C160.12 218.32 163.31 217.9 166.27 218.88L166.99 219.14C168.14 219.55 169.23 219.95 170.15 219.5C170.57 219.236 170.9 218.851 171.098 218.396C171.296 217.941 171.352 217.437 171.26 216.95C171.025 215.844 170.52 214.814 169.79 213.95C166.012 209.032 160.702 205.513 154.7 203.95C150.91 203.1 136.28 204.9 136.14 204.95C136.074 204.96 136.007 204.956 135.942 204.939C135.878 204.922 135.818 204.892 135.765 204.851C135.713 204.809 135.669 204.758 135.638 204.699C135.606 204.641 135.586 204.576 135.58 204.51C135.563 204.379 135.599 204.246 135.679 204.141C135.76 204.036 135.879 203.967 136.01 203.95C136.62 203.88 150.95 202.11 154.92 202.95C161.154 204.585 166.669 208.243 170.6 213.35C171.423 214.34 171.99 215.518 172.25 216.78C172.378 217.477 172.287 218.196 171.99 218.838C171.692 219.481 171.203 220.016 170.59 220.37C170.171 220.582 169.709 220.695 169.24 220.7V220.7Z" fill="#231F20"/>
<path d="M69.64 169.14C69.64 169.14 53.42 217.41 61.37 222.89C69.32 228.37 132.83 225.69 132.83 225.69L136.83 202.92C136.83 202.92 93.09 208.54 94.18 205.3C95.27 202.06 100.58 165.3 100.58 165.3L69.64 169.14Z" fill="#4347FE"/>
<path d="M254.13 221.75H151.67C150.593 221.75 149.72 222.623 149.72 223.7V223.79C149.72 224.867 150.593 225.74 151.67 225.74H254.13C255.207 225.74 256.08 224.867 256.08 223.79V223.7C256.08 222.623 255.207 221.75 254.13 221.75Z" fill="#231F20"/>
<path d="M254.12 226.23H151.67C151.007 226.23 150.371 225.967 149.902 225.498C149.433 225.029 149.17 224.393 149.17 223.73C149.17 223.067 149.433 222.431 149.902 221.962C150.371 221.493 151.007 221.23 151.67 221.23H254.12C254.783 221.23 255.419 221.493 255.888 221.962C256.357 222.431 256.62 223.067 256.62 223.73C256.62 224.393 256.357 225.029 255.888 225.498C255.419 225.967 254.783 226.23 254.12 226.23V226.23ZM151.67 222.23C151.285 222.23 150.917 222.383 150.645 222.655C150.373 222.927 150.22 223.295 150.22 223.68C150.212 223.876 150.243 224.072 150.312 224.256C150.381 224.44 150.487 224.609 150.622 224.751C150.757 224.894 150.919 225.008 151.099 225.087C151.279 225.166 151.473 225.208 151.67 225.21H254.12C254.505 225.21 254.875 225.058 255.149 224.786C255.422 224.514 255.577 224.146 255.58 223.76C255.587 223.563 255.554 223.367 255.484 223.183C255.414 222.999 255.308 222.831 255.172 222.688C255.036 222.546 254.873 222.432 254.692 222.353C254.511 222.274 254.317 222.233 254.12 222.23H151.67Z" fill="#231F20"/>
<path d="M216.61 172.06H279.29L254.21 223.69H191.53L216.61 172.06Z" fill="#231F20"/>
<path d="M254.21 224.19H191.53C191.446 224.19 191.364 224.169 191.291 224.129C191.217 224.088 191.155 224.03 191.11 223.96C191.071 223.886 191.05 223.804 191.05 223.72C191.05 223.636 191.071 223.554 191.11 223.48L216.19 171.84C216.232 171.757 216.296 171.686 216.376 171.637C216.455 171.588 216.547 171.561 216.64 171.56H279.32C279.405 171.56 279.488 171.583 279.562 171.625C279.635 171.667 279.697 171.727 279.74 171.8C279.779 171.874 279.8 171.956 279.8 172.04C279.8 172.124 279.779 172.206 279.74 172.28L254.66 223.91C254.618 223.993 254.554 224.064 254.474 224.113C254.395 224.162 254.303 224.189 254.21 224.19V224.19ZM192.33 223.19H253.89L278.49 172.56H216.93L192.33 223.19Z" fill="#231F20"/>
<path d="M136.84 203.42L90.13 200C90.0582 199.994 89.9888 199.972 89.9266 199.935C89.8643 199.899 89.8109 199.849 89.77 199.79C89.726 199.732 89.6958 199.666 89.6819 199.594C89.6681 199.523 89.6708 199.45 89.69 199.38L100.11 157.69C100.125 157.627 100.153 157.567 100.191 157.514C100.23 157.462 100.279 157.418 100.334 157.384C100.39 157.351 100.452 157.328 100.517 157.319C100.581 157.31 100.647 157.314 100.71 157.33C100.774 157.344 100.835 157.371 100.888 157.409C100.941 157.447 100.986 157.496 101.02 157.552C101.054 157.608 101.075 157.671 101.084 157.736C101.093 157.801 101.088 157.867 101.07 157.93L90.8 199L136.88 202.38C137.013 202.38 137.14 202.433 137.234 202.526C137.327 202.62 137.38 202.747 137.38 202.88C137.38 203.013 137.327 203.14 137.234 203.234C137.14 203.327 137.013 203.38 136.88 203.38L136.84 203.42Z" fill="#231F20"/>
<path d="M115 226.19C114.891 226.189 114.784 226.153 114.698 226.086C114.611 226.019 114.548 225.926 114.52 225.82C114.502 225.758 114.496 225.692 114.503 225.628C114.511 225.563 114.531 225.501 114.562 225.444C114.594 225.387 114.637 225.337 114.688 225.297C114.739 225.257 114.797 225.227 114.86 225.21C115 225.21 128.05 221.51 133.71 218.8C133.829 218.745 133.966 218.74 134.089 218.785C134.213 218.83 134.314 218.921 134.37 219.04C134.399 219.098 134.416 219.162 134.42 219.227C134.424 219.292 134.415 219.357 134.393 219.418C134.372 219.48 134.339 219.536 134.295 219.585C134.252 219.633 134.199 219.672 134.14 219.7C128.41 222.45 115.67 226.02 115.14 226.17L115 226.19Z" fill="#231F20"/>
<path d="M308.49 225.69H52.48C49.7904 225.69 47.61 227.87 47.61 230.56V237.04C47.61 239.73 49.7904 241.91 52.48 241.91H308.49C311.18 241.91 313.36 239.73 313.36 237.04V230.56C313.36 227.87 311.18 225.69 308.49 225.69Z" fill="#2C323F"/>
<path d="M308.49 242.41H52.49C51.7806 242.411 51.0779 242.272 50.4226 242C49.7673 241.729 49.1724 241.33 48.6721 240.827C48.1719 240.324 47.7763 239.726 47.5082 239.07C47.24 238.413 47.1047 237.709 47.11 237V230.51C47.11 229.088 47.6747 227.725 48.6799 226.72C49.6851 225.715 51.0484 225.15 52.47 225.15H308.47C309.892 225.15 311.255 225.715 312.26 226.72C313.265 227.725 313.83 229.088 313.83 230.51V237C313.835 237.706 313.701 238.406 313.436 239.06C313.17 239.715 312.778 240.31 312.282 240.812C311.786 241.315 311.196 241.715 310.545 241.989C309.894 242.263 309.196 242.406 308.49 242.41V242.41ZM52.49 226.19C51.9174 226.19 51.3505 226.303 50.8215 226.522C50.2925 226.741 49.8119 227.062 49.407 227.467C49.0021 227.872 48.681 228.353 48.4619 228.882C48.2428 229.411 48.13 229.977 48.13 230.55V237C48.13 238.157 48.589 239.267 49.4064 240.087C50.2238 240.906 51.3327 241.367 52.49 241.37H308.49C309.647 241.367 310.756 240.906 311.574 240.087C312.391 239.267 312.85 238.157 312.85 237V230.51C312.847 229.354 312.387 228.247 311.57 227.43C310.753 226.613 309.646 226.153 308.49 226.15L52.49 226.19Z" fill="#231F20"/>
<path d="M315.41 107.73C315.246 107.51 315.029 107.335 314.78 107.22C314.512 107.09 314.218 107.022 313.92 107.02C313.618 107.015 313.319 107.084 313.05 107.22C312.807 107.353 312.595 107.537 312.43 107.76C312.262 107.982 312.136 108.233 312.06 108.5C311.98 108.773 311.94 109.056 311.94 109.34C311.938 109.622 311.982 109.902 312.07 110.17C312.147 110.442 312.276 110.697 312.45 110.92C312.629 111.154 312.862 111.341 313.128 111.468C313.393 111.595 313.685 111.657 313.98 111.65C314.271 111.651 314.559 111.597 314.83 111.49C315.092 111.392 315.323 111.226 315.5 111.01L316.63 112.15C316.311 112.485 315.917 112.739 315.48 112.89C314.998 113.073 314.486 113.164 313.97 113.16C313.455 113.162 312.944 113.074 312.46 112.9C311.995 112.74 311.57 112.485 311.21 112.15C310.847 111.815 310.56 111.406 310.37 110.95C310.157 110.441 310.051 109.892 310.06 109.34C310.05 108.797 310.155 108.259 310.37 107.76C310.56 107.304 310.843 106.892 311.2 106.55C311.556 106.218 311.974 105.96 312.43 105.79C312.905 105.608 313.411 105.516 313.92 105.52C314.451 105.519 314.978 105.621 315.47 105.82C315.925 105.992 316.331 106.273 316.65 106.64L315.41 107.73Z" fill="#D1D3D4"/>
<path d="M213.31 109.71H209.92V108.61L213.04 103.89H214.53V108.64H215.53V109.71H214.53V111.23H213.31V109.71ZM213.31 105.35L211.22 108.64H213.33L213.31 105.35Z" fill="#D1D3D4"/>
<path d="M221.26 105H218.26L218.19 106.59C218.327 106.55 218.468 106.523 218.61 106.51H219.05C219.39 106.51 219.727 106.564 220.05 106.67C220.345 106.763 220.617 106.917 220.85 107.12C221.082 107.321 221.266 107.57 221.39 107.85C221.521 108.167 221.586 108.507 221.58 108.85C221.586 109.224 221.514 109.595 221.37 109.94C221.232 110.246 221.035 110.521 220.79 110.75C220.542 110.973 220.253 111.146 219.94 111.26C219.619 111.376 219.281 111.437 218.94 111.44C218.392 111.455 217.852 111.305 217.39 111.01C216.968 110.722 216.647 110.309 216.47 109.83L217.6 109.42C217.694 109.7 217.872 109.945 218.11 110.12C218.363 110.294 218.663 110.385 218.97 110.38C219.151 110.382 219.33 110.351 219.5 110.29C219.66 110.224 219.809 110.133 219.94 110.02C220.065 109.894 220.163 109.744 220.23 109.58C220.309 109.39 220.346 109.186 220.34 108.98C220.347 108.739 220.299 108.5 220.2 108.28C220.11 108.1 219.98 107.942 219.82 107.82C219.664 107.709 219.487 107.631 219.3 107.59C219.107 107.542 218.909 107.519 218.71 107.52H218.26C218.108 107.54 217.958 107.57 217.81 107.61L217.37 107.74L217 107.89L217.12 103.89H221.3L221.26 105Z" fill="#D1D3D4"/>
<path d="M222.76 105.7C222.758 105.439 222.809 105.181 222.91 104.94C223.01 104.714 223.149 104.508 223.32 104.33C223.499 104.156 223.71 104.017 223.94 103.92C224.421 103.725 224.959 103.725 225.44 103.92C225.666 104.02 225.872 104.159 226.05 104.33C226.23 104.51 226.372 104.723 226.468 104.959C226.564 105.194 226.612 105.446 226.61 105.7C226.612 105.958 226.561 106.213 226.46 106.45C226.267 106.899 225.909 107.257 225.46 107.45C225.104 107.592 224.716 107.628 224.34 107.556C223.964 107.483 223.617 107.304 223.34 107.04C223.169 106.862 223.03 106.656 222.93 106.43C222.824 106.201 222.767 105.952 222.76 105.7ZM225.62 105.7C225.618 105.488 225.542 105.282 225.406 105.119C225.27 104.956 225.082 104.845 224.873 104.805C224.665 104.765 224.448 104.799 224.262 104.9C224.075 105.001 223.929 105.164 223.849 105.361C223.768 105.557 223.758 105.776 223.82 105.979C223.883 106.182 224.013 106.357 224.19 106.475C224.367 106.592 224.579 106.645 224.791 106.624C225.002 106.604 225.2 106.51 225.35 106.36C225.438 106.274 225.507 106.171 225.553 106.058C225.6 105.944 225.622 105.823 225.62 105.7V105.7ZM228.88 103.56L229.75 103.96L225.43 111.56L224.57 111.17L228.88 103.56ZM227.71 109.43C227.708 109.172 227.759 108.917 227.86 108.68C227.957 108.447 228.1 108.237 228.28 108.06C228.456 107.887 228.663 107.748 228.89 107.65C229.371 107.455 229.909 107.455 230.39 107.65C230.617 107.748 230.824 107.887 231 108.06C231.18 108.237 231.323 108.447 231.42 108.68C231.615 109.161 231.615 109.699 231.42 110.18C231.319 110.408 231.177 110.615 231 110.79C230.827 110.967 230.619 111.106 230.39 111.2C230.152 111.299 229.897 111.35 229.64 111.35C229.383 111.35 229.128 111.299 228.89 111.2C228.661 111.106 228.453 110.967 228.28 110.79C228.103 110.615 227.961 110.408 227.86 110.18C227.759 109.943 227.708 109.688 227.71 109.43V109.43ZM230.57 109.43C230.574 109.306 230.552 109.182 230.505 109.067C230.459 108.951 230.389 108.847 230.3 108.76C230.215 108.671 230.112 108.602 229.999 108.555C229.885 108.509 229.763 108.486 229.64 108.49C229.509 108.476 229.377 108.491 229.252 108.531C229.127 108.572 229.011 108.639 228.914 108.727C228.816 108.815 228.738 108.923 228.684 109.043C228.631 109.163 228.603 109.293 228.603 109.425C228.603 109.557 228.631 109.687 228.684 109.807C228.738 109.927 228.816 110.035 228.914 110.123C229.011 110.211 229.127 110.278 229.252 110.319C229.377 110.359 229.509 110.374 229.64 110.36C229.763 110.364 229.885 110.341 229.999 110.295C230.112 110.248 230.215 110.179 230.3 110.09C230.388 110.004 230.457 109.901 230.503 109.788C230.55 109.674 230.572 109.553 230.57 109.43V109.43Z" fill="#D1D3D4"/>
<path d="M294.52 153.43V158.5H294.57C294.672 158.367 294.786 158.243 294.91 158.13C295.067 157.989 295.238 157.865 295.42 157.76C295.634 157.641 295.863 157.55 296.1 157.49C296.389 157.406 296.689 157.365 296.99 157.37C297.465 157.37 297.934 157.468 298.369 157.657C298.805 157.846 299.196 158.123 299.52 158.47C299.838 158.822 300.083 159.233 300.24 159.68C300.411 160.154 300.496 160.656 300.49 161.16C300.494 161.67 300.413 162.177 300.25 162.66C300.09 163.107 299.849 163.52 299.54 163.88C299.218 164.25 298.817 164.543 298.368 164.738C297.918 164.934 297.43 165.027 296.94 165.01C296.444 165.014 295.954 164.901 295.51 164.68C295.067 164.461 294.701 164.112 294.46 163.68V164.76H292.75V153.43H294.52ZM298.66 161.16C298.661 160.878 298.617 160.598 298.53 160.33C298.45 160.059 298.321 159.805 298.15 159.58C297.973 159.359 297.752 159.179 297.5 159.05C297.214 158.911 296.898 158.843 296.58 158.85C296.274 158.845 295.971 158.917 295.7 159.06C295.444 159.195 295.216 159.378 295.03 159.6C294.84 159.819 294.698 160.074 294.61 160.35C294.512 160.619 294.461 160.904 294.46 161.19C294.46 161.477 294.511 161.761 294.61 162.03C294.698 162.303 294.841 162.555 295.03 162.77C295.216 162.992 295.444 163.175 295.7 163.31C295.981 163.445 296.288 163.515 296.6 163.515C296.912 163.515 297.219 163.445 297.5 163.31C297.753 163.178 297.974 162.994 298.15 162.77C298.323 162.547 298.452 162.292 298.53 162.02C298.619 161.742 298.663 161.452 298.66 161.16V161.16Z" fill="#D1D3D4"/>
<path d="M294.52 153.43V158.5H294.57C294.672 158.367 294.786 158.243 294.91 158.13C295.067 157.989 295.238 157.865 295.42 157.76C295.634 157.641 295.863 157.55 296.1 157.49C296.389 157.406 296.689 157.365 296.99 157.37C297.465 157.37 297.934 157.468 298.369 157.657C298.805 157.846 299.196 158.123 299.52 158.47C299.838 158.822 300.083 159.233 300.24 159.68C300.411 160.154 300.496 160.656 300.49 161.16C300.494 161.67 300.413 162.177 300.25 162.66C300.09 163.107 299.849 163.52 299.54 163.88C299.218 164.25 298.817 164.543 298.368 164.738C297.918 164.934 297.43 165.027 296.94 165.01C296.444 165.014 295.954 164.901 295.51 164.68C295.067 164.461 294.701 164.112 294.46 163.68V164.76H292.75V153.43H294.52ZM298.66 161.16C298.661 160.878 298.617 160.598 298.53 160.33C298.45 160.059 298.321 159.805 298.15 159.58C297.973 159.359 297.752 159.179 297.5 159.05C297.214 158.911 296.898 158.843 296.58 158.85C296.274 158.845 295.971 158.917 295.7 159.06C295.444 159.195 295.216 159.378 295.03 159.6C294.84 159.819 294.698 160.074 294.61 160.35C294.512 160.619 294.461 160.904 294.46 161.19C294.46 161.477 294.511 161.761 294.61 162.03C294.698 162.303 294.841 162.555 295.03 162.77C295.216 162.992 295.444 163.175 295.7 163.31C295.981 163.445 296.288 163.515 296.6 163.515C296.912 163.515 297.219 163.445 297.5 163.31C297.753 163.178 297.974 162.994 298.15 162.77C298.323 162.547 298.452 162.292 298.53 162.02C298.619 161.742 298.663 161.452 298.66 161.16V161.16Z" fill="#D1D3D4"/>
<path d="M235.78 120.51H183.62C183.517 120.51 183.417 120.478 183.333 120.419C183.249 120.36 183.185 120.277 183.15 120.18C183.118 120.081 183.116 119.975 183.144 119.875C183.173 119.776 183.23 119.687 183.31 119.62L235.47 78.77C235.52 78.7225 235.58 78.6859 235.645 78.6627C235.71 78.6394 235.78 78.6299 235.849 78.6349C235.918 78.6398 235.985 78.659 236.046 78.6913C236.108 78.7236 236.162 78.7683 236.205 78.8225C236.248 78.8767 236.279 78.9392 236.297 79.0062C236.314 79.0731 236.318 79.143 236.307 79.2114C236.296 79.2798 236.271 79.3452 236.234 79.4035C236.197 79.4618 236.148 79.5117 236.09 79.55L185.09 119.55H235.8C235.932 119.553 236.058 119.606 236.151 119.699C236.244 119.793 236.297 119.918 236.3 120.05C236.29 120.179 236.23 120.299 236.133 120.385C236.036 120.471 235.909 120.516 235.78 120.51Z" fill="#D1D3D4"/>
<path d="M202.9 124.52C202.804 124.518 202.711 124.491 202.63 124.44C202.519 124.368 202.441 124.256 202.411 124.127C202.381 123.999 202.402 123.863 202.47 123.75C202.54 123.65 208.91 113.04 195.64 98.7501C195.548 98.6549 195.496 98.5276 195.496 98.3951C195.496 98.2625 195.548 98.1352 195.64 98.0401C195.686 97.9932 195.742 97.956 195.803 97.9306C195.864 97.9052 195.929 97.8922 195.995 97.8922C196.061 97.8922 196.126 97.9052 196.187 97.9306C196.248 97.956 196.304 97.9932 196.35 98.0401C203.54 105.77 205.06 112.45 205.07 116.69C205.145 119.313 204.532 121.909 203.29 124.22C203.256 124.299 203.203 124.369 203.134 124.421C203.066 124.474 202.985 124.508 202.9 124.52Z" fill="#D1D3D4"/>
<path d="M333.7 193.72H305.17C305.037 193.72 304.91 193.667 304.816 193.574C304.723 193.48 304.67 193.353 304.67 193.22V181.39C304.67 181.257 304.723 181.13 304.816 181.036C304.91 180.943 305.037 180.89 305.17 180.89H333.7C333.833 180.89 333.96 180.943 334.054 181.036C334.147 181.13 334.2 181.257 334.2 181.39V193.22C334.2 193.353 334.147 193.48 334.054 193.574C333.96 193.667 333.833 193.72 333.7 193.72ZM305.7 192.72H333.2V181.89H305.67L305.7 192.72Z" fill="#D1D3D4"/>
<path d="M333.69 187.31H305.17V193.23H333.69V187.31Z" fill="#D1D3D4"/>
<path d="M333.7 193.72H305.17C305.037 193.72 304.91 193.667 304.816 193.574C304.723 193.48 304.67 193.353 304.67 193.22V187.31C304.67 187.177 304.723 187.05 304.816 186.957C304.91 186.863 305.037 186.81 305.17 186.81H333.7C333.833 186.81 333.96 186.863 334.054 186.957C334.147 187.05 334.2 187.177 334.2 187.31V193.22C334.2 193.353 334.147 193.48 334.054 193.574C333.96 193.667 333.833 193.72 333.7 193.72ZM305.7 192.72H333.2V187.81H305.67L305.7 192.72Z" fill="#D1D3D4"/>
</svg>
